<svg xmlns="http://www.w3.org/2000/svg" viewBox="0 0 1400 560" width="1400" height="560" xmlns:c2pa="http://c2pa.org/manifest"><metadata><c2pa:manifest>AAAWgmp1bWIAAAAeanVtZGMycGEAEQAQgAAAqgA4m3EDYzJwYQAAABZcanVtYgAAAEdqdW1kYzJtYQARABCAAACqADibcQN1cm46YzJwYTo0NWE4NzMzZC05Yzc2LTQxZTQtYmY4NS0zODM4OGI0MzUyZGQAAAADl2p1bWIAAAApanVtZGMyYXMAEQAQgAAAqgA4m3EDYzJwYS5hc3NlcnRpb25zAAAAALxqdW1iAAAARGp1bWRjYm9yABEAEIAAAKoAOJtxE2MycGEuaW5ncmVkaWVudC52MwAAAAAYYzJzaI7IZ58c3v3LqBMF+K6soD8AAABwY2JvcqNpZGM6Zm9ybWF0bWltYWdlL3N2Zyt4bWxqaW5zdGFuY2VJRHgseG1wOmlpZDo2MTk3MjMwZS0yMjI1LTRlZWEtOTYxMS1kNDhmZjE2YTQ5MWJscmVsYXRpb25zaGlwaHBhcmVudE9mAAAB4mp1bWIAAABBanVtZGNib3IAEQAQgAAAqgA4m3ETYzJwYS5hY3Rpb25zLnYyAAAAABhjMnNozkK7iowPrNCnQnp42PFENwAAAZljYm9yomdhY3Rpb25zgqJmYWN0aW9ua2MycGEub3BlbmVkanBhcmFtZXRlcnOha2luZ3JlZGllbnRzgaJjdXJseC1zZWxmI2p1bWJmPWMycGEuYXNzZXJ0aW9ucy9jMnBhLmluZ3JlZGllbnQudjNkaGFzaFggwpHWo2y3tdQHLmOx6jLomvdvWBxPXkCrvJ2sdqlKM52kZmFjdGlvbngdY29tLmFudGhyb3BpYy5jbGF1ZGUucHJvdmlkZWRqcGFyYW1ldGVyc6F4H2NvbS5hbnRocm9waWMub3JpZ2luLWNvbmZpZGVuY2VndW5rbm93bmtkZXNjcmlwdGlvbnhmQ2xhdWRlIHByb3ZpZGVkIHRoaXMgZmlsZSBhdCB0aGUgcmVxdWVzdCBvZiBhIHVzZXIgYW5kIG1heSBoYXZlIGNyZWF0ZWQgb3IgbW9kaWZpZWQgdGhlIGZpbGUgY29udGVudHMubXNvZnR3YXJlQWdlbnShZG5hbWVmQ2xhdWRlcmFsbEFjdGlvbnNJbmNsdWRlZPUAAADIanVtYgAAAEBqdW1kY2JvcgARABCAAACqADibcRNjMnBhLmhhc2guZGF0YQAAAAAYYzJzaL3XDA0sb7EOXsSoQg8thIcAAACAY2JvcqVjYWxnZnNoYTI1NmNwYWRNAAAAAAAAAAAAAAAAAGRoYXNoWCDbiN2VSR9qOeAJbrainrW9VIg1VwYMYKmlh9Fu+F3W7GRuYW1lbmp1bWJmIG1hbmlmZXN0amV4Y2x1c2lvbnOBomVzdGFydBiYZmxlbmd0aBkeBAAAAj5qdW1iAAAAJ2p1bWRjMmNsABEAEIAAAKoAOJtxA2MycGEuY2xhaW0udjIAAAACD2Nib3KlY2FsZ2ZzaGEyNTZpc2lnbmF0dXJleE1zZWxmI2p1bWJmPS9jMnBhL3VybjpjMnBhOjQ1YTg3MzNkLTljNzYtNDFlNC1iZjg1LTM4Mzg4YjQzNTJkZC9jMnBhLnNpZ25hdHVyZWppbnN0YW5jZUlEeCx4bXA6aWlkOjdiMWEzYTI5LTk1ZjctNDFmNi04N2I0LTJmZmNiNjhlY2Y4OXJjcmVhdGVkX2Fzc2VydGlvbnODomN1cmx4LXNlbGYjanVtYmY9YzJwYS5hc3NlcnRpb25zL2MycGEuaW5ncmVkaWVudC52M2RoYXNoWCDCkdajbLe11AcuY7HqMuia929YHE9eQKu8nax2qUoznaJjdXJseCpzZWxmI2p1bWJmPWMycGEuYXNzZXJ0aW9ucy9jMnBhLmFjdGlvbnMudjJkaGFzaFggZwNanj/XkGmSeUBM15pPcm6bKefrP56PAo97stT+F+CiY3VybHgpc2VsZiNqdW1iZj1jMnBhLmFzc2VydGlvbnMvYzJwYS5oYXNoLmRhdGFkaGFzaFggxZ0vfPseVJYcm/TyVyaODIRm4XfvkLNbUSIy97v0FsJ0Y2xhaW1fZ2VuZXJhdG9yX2luZm+jZG5hbWVvQW50aHJvcGljIEZpbGVzZ3ZlcnNpb25lMS4wLjBrc3BlY1ZlcnNpb25lMi40LjAAABA4anVtYgAAAChqdW1kYzJjcwARABCAAACqADibcQNjMnBhLnNpZ25hdHVyZQAAABAIY2JvctKEWQISogEmGCFZAgowggIGMIIBjaADAgECAhRA5aAK7sI50L64g/oGQgU9Z1UTADAKBggqhkjOPQQDAzBJMRcwFQYDVQQKEw5BbnRocm9waWMsIFBCQzEuMCwGA1UEAxMlQW50aHJvcGljIENvbnRlbnQgQ3JlZGVudGlhbHMgUm9vdCBDQTAeFw0yNjA4MDcxODQzNTZaFw0yODA4MDYxOTQzNTZaMEQxFzAVBgNVBAoTDkFudGhyb3BpYywgUEJDMSkwJwYDVQQDEyBBbnRocm9waWMgQ2xhdWRlIENvbnRlbnQgU2lnbmluZzBZMBMGByqGSM49AgEGCCqGSM49AwEHA0IABJh6CmvLUBgFFNU0vUKlOVtE6djd17L5SuwX0LemFisBM3dkd/3cyjxFA3Qo5S46fX0/ihY0VZ7mfb9KF703t5OjWDBWMA4GA1UdDwEB/wQEAwIHgDAVBgNVHSUEDjAMBgorBgEEAYPoXgIBMAwGA1UdEwEB/wQCMAAwHwYDVR0jBBgwFoAUzlHiBIFOZFsj+OPEz5o+nMHXXMIwCgYIKoZIzj0EAwMDZwAwZAIwMXMdFJ4BetLLVY7ORuE9noqbbAZOZn/aArXyTwFAZfKrPzxF2vPoJNf1+UCdg1XGAjBwX1zd9WGqYkqmL5SFqw1QySjr1zJfpJM9+1rdDwSPLMOPOjKuiXjoU/pUUeG9RwmhY3BhZFkNngAAAAAAAAAAAAAAAAAAAAAAAAAAAAAAAAAAAAAAAAAAAAAAAAAAAAAAAAAAAAAAAAAAAAAAAAAAAAAAAAAAAAAAAAAAAAAAAAAAAAAAAAAAAAAAAAAAAAAAAAAAAAAAAAAAAAAAAAAAAAAAAAAAAAAAAAAAAAAAAAAAAAAAAAAAAAAAAAAAAAAAAAAAAAAAAAAAAAAAAAAAAAAAAAAAAAAAAAAAAAAAAAAAAAAAAAAAAAAAAAAAAAAAAAAAAAAAAAAAAAAAAAAAAAAAAAAAAAAAAAAAAAAAAAAAAAAAAAAAAAAAAAAAAAAAAAAAAAAAAAAAAAAAAAAAAAAAAAAAAAAAAAAAAAAAAAAAAAAAAAAAAAAAAAAAAAAAAAAAAAAAAAAAAAAAAAAAAAAAAAAAAAAAAAAAAAAAAAAAAAAAAAAAAAAAAAAAAAAAAAAAAAAAAAAAAAAAAAAAAAAAAAAAAAAAAAAAAAAAAAAAAAAAAAAAAAAAAAAAAAAAAAAAAAAAAAAAAAAAAAAAAAAAAAAAAAAAAAAAAAAAAAAAAAAAAAAAAAAAAAAAAAAAAAAAAAAAAAAAAAAAAAAAAAAAAAAAAAAAAAAAAAAAAAAAAAAAAAAAAAAAAAAAAAAAAAAAAAAAAAAAAAAAAAAAAAAAAAAAAAAAAAAAAAAAAAAAAAAAAAAAAAAAAAAAAAAAAAAAAAAAAAAAAAAAAAAAAAAAAAAAAAAAAAAAAAAAAAAAAAAAAAAAAAAAAAAAAAAAAAAAAAAAAAAAAAAAAAAAAAAAAAAAAAAAAAAAAAAAAAAAAAAAAAAAAAAAAAAAAAAAAAAAAAAAAAAAAAAAAAAAAAAAAAAAAAAAAAAAAAAAAAAAAAAAAAAAAAAAAAAAAAAAAAAAAAAAAAAAAAAAAAAAAAAAAAAAAAAAAAAAAAAAAAAAAAAAAAAAAAAAAAAAAAAAAAAAAAAAAAAAAAAAAAAAAAAAAAAAAAAAAAAAAAAAAAAAAAAAAAAAAAAAAAAAAAAAAAAAAAAAAAAAAAAAAAAAAAAAAAAAAAAAAAAAAAAAAAAAAAAAAAAAAAAAAAAAAAAAAAAAAAAAAAAAAAAAAAAAAAAAAAAAAAAAAAAAAAAAAAAAAAAAAAAAAAAAAAAAAAAAAAAAAAAAAAAAAAAAAAAAAAAAAAAAAAAAAAAAAAAAAAAAAAAAAAAAAAAAAAAAAAAAAAAAAAAAAAAAAAAAAAAAAAAAAAAAAAAAAAAAAAAAAAAAAAAAAAAAAAAAAAAAAAAAAAAAAAAAAAAAAAAAAAAAAAAAAAAAAAAAAAAAAAAAAAAAAAAAAAAAAAAAAAAAAAAAAAAAAAAAAAAAAAAAAAAAAAAAAAAAAAAAAAAAAAAAAAAAAAAAAAAAAAAAAAAAAAAAAAAAAAAAAAAAAAAAAAAAAAAAAAAAAAAAAAAAAAAAAAAAAAAAAAAAAAAAAAAAAAAAAAAAAAAAAAAAAAAAAAAAAAAAAAAAAAAAAAAAAAAAAAAAAAAAAAAAAAAAAAAAAAAAAAAAAAAAAAAAAAAAAAAAAAAAAAAAAAAAAAAAAAAAAAAAAAAAAAAAAAAAAAAAAAAAAAAAAAAAAAAAAAAAAAAAAAAAAAAAAAAAAAAAAAAAAAAAAAAAAAAAAAAAAAAAAAAAAAAAAAAAAAAAAAAAAAAAAAAAAAAAAAAAAAAAAAAAAAAAAAAAAAAAAAAAAAAAAAAAAAAAAAAAAAAAAAAAAAAAAAAAAAAAAAAAAAAAAAAAAAAAAAAAAAAAAAAAAAAAAAAAAAAAAAAAAAAAAAAAAAAAAAAAAAAAAAAAAAAAAAAAAAAAAAAAAAAAAAAAAAAAAAAAAAAAAAAAAAAAAAAAAAAAAAAAAAAAAAAAAAAAAAAAAAAAAAAAAAAAAAAAAAAAAAAAAAAAAAAAAAAAAAAAAAAAAAAAAAAAAAAAAAAAAAAAAAAAAAAAAAAAAAAAAAAAAAAAAAAAAAAAAAAAAAAAAAAAAAAAAAAAAAAAAAAAAAAAAAAAAAAAAAAAAAAAAAAAAAAAAAAAAAAAAAAAAAAAAAAAAAAAAAAAAAAAAAAAAAAAAAAAAAAAAAAAAAAAAAAAAAAAAAAAAAAAAAAAAAAAAAAAAAAAAAAAAAAAAAAAAAAAAAAAAAAAAAAAAAAAAAAAAAAAAAAAAAAAAAAAAAAAAAAAAAAAAAAAAAAAAAAAAAAAAAAAAAAAAAAAAAAAAAAAAAAAAAAAAAAAAAAAAAAAAAAAAAAAAAAAAAAAAAAAAAAAAAAAAAAAAAAAAAAAAAAAAAAAAAAAAAAAAAAAAAAAAAAAAAAAAAAAAAAAAAAAAAAAAAAAAAAAAAAAAAAAAAAAAAAAAAAAAAAAAAAAAAAAAAAAAAAAAAAAAAAAAAAAAAAAAAAAAAAAAAAAAAAAAAAAAAAAAAAAAAAAAAAAAAAAAAAAAAAAAAAAAAAAAAAAAAAAAAAAAAAAAAAAAAAAAAAAAAAAAAAAAAAAAAAAAAAAAAAAAAAAAAAAAAAAAAAAAAAAAAAAAAAAAAAAAAAAAAAAAAAAAAAAAAAAAAAAAAAAAAAAAAAAAAAAAAAAAAAAAAAAAAAAAAAAAAAAAAAAAAAAAAAAAAAAAAAAAAAAAAAAAAAAAAAAAAAAAAAAAAAAAAAAAAAAAAAAAAAAAAAAAAAAAAAAAAAAAAAAAAAAAAAAAAAAAAAAAAAAAAAAAAAAAAAAAAAAAAAAAAAAAAAAAAAAAAAAAAAAAAAAAAAAAAAAAAAAAAAAAAAAAAAAAAAAAAAAAAAAAAAAAAAAAAAAAAAAAAAAAAAAAAAAAAAAAAAAAAAAAAAAAAAAAAAAAAAAAAAAAAAAAAAAAAAAAAAAAAAAAAAAAAAAAAAAAAAAAAAAAAAAAAAAAAAAAAAAAAAAAAAAAAAAAAAAAAAAAAAAAAAAAAAAAAAAAAAAAAAAAAAAAAAAAAAAAAAAAAAAAAAAAAAAAAAAAAAAAAAAAAAAAAAAAAAAAAAAAAAAAAAAAAAAAAAAAAAAAAAAAAAAAAAAAAAAAAAAAAAAAAAAAAAAAAAAAAAAAAAAAAAAAAAAAAAAAAAAAAAAAAAAAAAAAAAAAAAAAAAAAAAAAAAAAAAAAAAAAAAAAAAAAAAAAAAAAAAAAAAAAAAAAAAAAAAAAAAAAAAAAAAAAAAAAAAAAAAAAAAAAAAAAAAAAAAAAAAAAAAAAAAAAAAAAAAAAAAAAAAAAAAAAAAAAAAAAAAAAAAAAAAAAAAAAAAAAAAAAAAAAAAAAAAAAAAAAAAAAAAAAAAAAAAAAAAAAAAAAAAAAAAAAAAAAAAAAAAAAAAAAAAAAAAAAAAAAAAAAAAAAAAAAAAAAAAAAAAAAAAAAAAAAAAAAAAAAAAAAAAAAAAAAAAAAAAAAAAAAAAAAAAAAAAAAAAAAAAAAAAAAAAAAAAAAAAAAAAAAAAAAAAAAAAAAAAAAAAAAAAAAAAAAAAAAAAAAAAAAAAAAAAAAAAAAAAAAAAAAAAAAAAAAAAAAAAAAAAAAAAAAAAAAAAAAAAAAAAAAAAAAAAAAAAAAAAAAAAAAAAAAAAAAAAAAAAAAAAAAAAAAAAAAAAAAAAAAAAAAAAAAAAAAAAAAAAAAAAAAAAAAAAAAAAAAAAAAAAAAAAAAAAAAAAAAAAAAAAAAAAAAAAAAAAAAAAAAAAAAAAAAAAAAAAAAAAAAAAAAAAAAAAAAAAAAAAAAAAAAAAAAAAAAAAAAAAAAAAAAAAAAAAAAAAAAAAAAAAAAAAAAAAAAAAAAAAAAAAAAAAAAAAAAAAAAAAAAAAAAAAAAAAAAAAAAAAAAAAAAAAAAAAAAAAAAAAAAAAAAAAAAAAAAAAAAAAAAAAAAAAAAAAAAAAAAAAAAAAAAAAAAAAAAAAAAAAAAAAAAAAAAAAAAAAAAAAAAAAAAAAAAAAAAAAAAAAAAAAAAAAAAAAAAAAAAAAAAAAAAAAAAAAAAAAAAAAAAAAAAAAAAAAAAAAAAAAAAAAAAAAAAAAAAAAAAAAAAAAAAAAAAAAAAAAAAAAAAAAAAAAAAAAAAAAAAAAAAAAAAAAAAAAAAAAAAAAAAAAAAAAAAAAAAAAAAAAAAAAAAAAAAAAAAAAAAAAAAAAAAAAAAAAAAAAAAAAAAAAAAAAAAAAAAAAAAAAAAAAAAAAAAAAAAAAAAAAAAAAAAAAAAAAAAAAAAAAAAAAAAAAAAAAAAAAAAAAAAAAAAAAAAAAAAAAAAAAAAAAAAAAAAAAAAAAAAAAAAAAAAAAAAAAAAAAAAAAAAAAAAAAAAAAAAAAAAAAAAAAAAAAAAAAAAAAAAAAAAAAAAAAAAAAAAAAAAAAAAAAAAAAAAAAAAAAAAAAAAAAAAAAAAAAAAAAAAAAAAAAAAAAAAAAAAAAAAAAAAAAAAAAAAAAAAAAAAAAAAAAAAAAAAAAAAAAAAAAAAAAAAAAAAAAAAAAAAAAAAAAAAAAAAAAAAAAAAAAAAAAAAAAAAAAAAAAAAAAAAAAAAAAAAAAAAAAAAAAAAAAAAAAAAAAAAAAAAAAAAAAAAAAAAAAAAAAAAAAAAAAAAAAAAAAAAAAAAAAAAAAAAAAAAAAAAAAAAAAAAAAAAAAAAAAAAAAAAAAAAAAAAAAAAAAAAAAAAAAAAAAAAAAAAPZYQBGlKBkTaZbkiEruQMIt1V9DfV1ysC+urv2OucXphC7KW94rPnCExa/fNGQ0EL5tSGo9VA/FYjKNqj+z1UJ6cpg=</c2pa:manifest></metadata><rect width="1400" height="560" fill="#F2F7FB"/><circle cx="229.0" cy="280.0" r="190.4" fill="#DCEAF5"/><g transform="translate(44.88757396449707 54.071005917159766) scale(0.8047337278106509)"><defs><clipPath id="disc-m"><circle cx="256" cy="256" r="256"/></clipPath></defs><g clip-path="url(#disc-m)"><g transform="translate(256 256) scale(0.94) translate(-256 -256)"><g transform="translate(512 0) scale(-1 1)">
  <polygon points="258.9,502.9 266.5,504.6 274.4,505.8 282.4,506.5 290.4,506.6 298.4,506.1 306.4,505.1 314.3,503.5 322.1,501.5 329.8,498.9 337.3,495.9 344.6,492.4 351.7,488.6 358.6,484.4 365.3,479.8 371.7,474.9 377.9,469.6 383.9,464.1 389.7,458.4 395.2,452.3 400.5,446.1 405.6,439.6 410.5,432.9 415.1,426.0 419.5,418.9 423.6,411.6 427.6,404.2 431.3,396.6 434.8,388.9 438.0,381.0 441.0,373.1 443.8,365.0 446.3,356.8 448.6,348.5 450.7,340.1 452.5,331.7 454.1,323.1 455.4,314.6 456.5,306.0 457.3,297.3 457.8,288.6 458.0,279.9 458.0,271.2 457.7,262.5 457.1,253.8 456.3,245.2 455.1,236.6 453.7,228.0 452.0,219.6 450.0,211.2 447.7,202.8 445.1,194.6 442.2,186.5 438.9,178.6 435.4,170.8 431.6,163.2 427.5,155.7 423.0,148.5 418.3,141.5 413.2,134.7 407.9,128.2 402.2,122.0 396.3,116.1 390.1,110.5 383.6,105.4 376.8,100.5 369.9,96.1 362.7,92.1 355.3,88.6 347.7,85.5 340.0,82.9 332.1,80.7 324.3,79.0 320.2,77.7 316.0,77.1 311.8,77.1 307.6,77.8 303.6,79.1 299.8,81.0 296.4,83.5 293.4,86.5 290.9,90.0 289.0,93.7 287.7,97.8 287.1,102.0 287.1,106.2 287.8,110.4 289.1,114.4 291.0,118.2 293.5,121.6 296.5,124.6 300.0,127.1 303.7,129.0 307.4,132.4 310.7,136.0 313.7,139.6 316.3,143.3 318.6,147.2 320.7,151.0 322.6,155.0 324.2,159.0 325.7,163.0 326.9,167.2 328.1,171.4 329.1,175.7 329.9,180.0 330.7,184.5 331.3,189.0 331.9,193.7 332.3,198.4 332.7,203.3 333.0,208.2 333.1,213.2 333.2,218.3 333.3,223.5 333.2,228.7 333.1,234.1 332.8,239.5 332.5,244.9 332.2,250.4 331.7,256.0 331.2,261.6 330.7,267.3 330.0,272.9 329.3,278.6 328.6,284.3 327.7,290.0 326.9,295.7 325.9,301.4 324.9,307.0 323.9,312.6 322.7,318.2 321.5,323.7 320.3,329.2 319.0,334.5 317.6,339.8 316.2,345.1 314.8,350.2 313.3,355.2 311.7,360.1 310.2,364.8 308.5,369.4 306.9,373.9 305.3,378.3 303.6,382.5 301.9,386.5 300.2,390.3 298.5,394.0 296.8,397.5 295.1,400.9 293.4,404.0 291.7,407.0 290.0,409.9 288.3,412.6 286.7,415.1 285.0,417.5 283.3,419.7 281.5,421.8 279.7,423.9 277.7,425.7 275.6,427.5 273.4,429.2 270.9,430.7 268.2,432.0 265.1,433.1" fill="#A24E2A"/><polygon points="265.1,433.1 268.2,432.0 270.9,430.7 273.4,429.2 275.6,427.5 277.7,425.7 279.7,423.9 281.5,421.8 283.3,419.7 285.0,417.5 286.7,415.1 288.3,412.6 290.0,409.9 291.7,407.0 293.4,404.0 295.1,400.9 296.8,397.5 298.5,394.0 300.2,390.3 301.9,386.5 303.6,382.5 305.3,378.3 306.9,373.9 308.5,369.4 310.2,364.8 311.7,360.1 313.3,355.2 314.8,350.2 316.2,345.1 317.6,339.8 319.0,334.5 320.3,329.2 321.5,323.7 322.7,318.2 323.9,312.6 324.9,307.0 325.9,301.4 326.9,295.7 327.7,290.0 328.6,284.3 329.3,278.6 330.0,272.9 330.7,267.3 331.2,261.6 331.7,256.0 332.2,250.4 332.5,244.9 332.8,239.5 333.1,234.1 333.2,228.7 333.3,223.5 333.2,218.3 333.1,213.2 333.0,208.2 332.7,203.3 332.3,198.4 331.9,193.7 331.3,189.0 330.7,184.5 329.9,180.0 329.1,175.7 328.1,171.4 326.9,167.2 325.7,163.0 324.2,159.0 322.6,155.0 320.7,151.0 318.6,147.2 316.3,143.3 313.7,139.6 310.7,136.0 307.4,132.4 303.7,129.0 300.0,127.1 296.5,124.6 293.5,121.6 291.0,118.2 289.1,114.4 287.8,110.4 287.1,106.2 287.1,102.0 287.7,97.8 289.0,93.7 314.0,104.0 319.8,106.6 325.4,109.4 330.7,112.6 335.8,116.0 340.6,119.6 345.3,123.6 349.7,127.7 353.9,132.2 357.9,136.8 361.6,141.6 365.2,146.7 368.5,151.9 371.6,157.4 374.5,163.0 377.2,168.8 379.7,174.7 382.0,180.8 384.1,187.0 386.0,193.4 387.6,199.9 389.2,206.5 390.5,213.2 391.6,219.9 392.5,226.8 393.3,233.8 393.8,240.8 394.2,247.8 394.4,254.9 394.5,262.1 394.3,269.2 394.0,276.4 393.6,283.6 392.9,290.8 392.1,298.0 391.1,305.1 390.0,312.2 388.7,319.3 387.3,326.4 385.7,333.3 383.9,340.2 382.0,347.1 380.0,353.8 377.8,360.4 375.5,367.0 373.0,373.4 370.4,379.7 367.7,385.8 364.8,391.9 361.8,397.7 358.7,403.4 355.4,408.9 352.1,414.3 348.6,419.4 344.9,424.3 341.2,429.1 337.4,433.6 333.4,437.9 329.3,441.9 325.1,445.7 320.9,449.2 316.5,452.5 312.0,455.5 307.4,458.2 302.7,460.6 297.9,462.7 293.0,464.5 288.1,465.9 283.0,467.0 277.9,467.8 272.7,468.2 267.4,468.3 262.0,468.0" fill="#E0925F"/>
  <path d="M 214 268 C 176 290 156 340 158 400 C 160 450 176 484 208 496 C 236 506 276 502 300 492 C 336 478 352 440 348 396 C 344 340 320 292 284 270 C 262 258 236 258 214 268 Z" fill="#C8693A"/>
  <path d="M 190 152 C 186 116 200 74 226 60 C 244 52 256 70 252 96 C 248 126 236 152 226 164 Z" fill="#C8693A"/>
  <path d="M 208 146 C 208 122 216 100 230 90 C 238 98 238 118 232 138 Z" fill="#F1EADC"/>
  <circle cx="200" cy="208" r="78" fill="#C8693A"/>
  <circle cx="144" cy="238" r="30" fill="#C8693A"/>
  <circle cx="148" cy="242" r="23" fill="#F1EADC"/>
  <circle cx="120" cy="232" r="8" fill="#0F1F33"/>
  <circle cx="178" cy="200" r="18" fill="#F1EADC"/><circle cx="177" cy="203" r="13" fill="#0F1F33"/>
  <circle cx="218" cy="396" r="96" fill="#B5762F"/><circle cx="218" cy="396" r="88" fill="#C9A45E"/>
  <ellipse cx="160" cy="318" rx="20" ry="26" transform="rotate(-38 160 318)" fill="#C8693A"/>
  <ellipse cx="276" cy="318" rx="20" ry="26" transform="rotate(38 276 318)" fill="#C8693A"/></g><path d="M96.517578125 0Q69.819091796875 0 51.3433837890625 18.1624755859375Q32.86767578125 36.324951171875 32.86767578125 63.0234375Q32.86767578125 90.40869140625 51.3433837890625 107.8843994140625Q69.819091796875 125.360107421875 96.517578125 125.360107421875H146.36181640625L117.036865234375 100.91455078125V332.180908203125L145.36181640625 304.98828125H83.566162109375Q62.37353515625 304.98828125 47.62060546875 318.8978271484375Q32.86767578125 332.807373046875 32.86767578125 353.686767578125Q32.86767578125 375.566162109375 47.62060546875 388.9757080078125Q62.37353515625 402.38525390625 83.566162109375 402.38525390625H145.36181640625L117.036865234375 372.566162109375V488.85595703125Q117.036865234375 556.422119140625 144.1331787109375 607.4581298828125Q171.2294921875 658.494140625 226.3919677734375 687.060302734375Q281.554443359375 715.62646484375 364.939697265625 715.62646484375Q412.807373046875 715.62646484375 461.2052001953125 703.13232421875Q509.60302734375 690.63818359375 541.036865234375 670.0234375Q563.048583984375 657.336669921875 571.2110595703125 638.9874267578125Q579.37353515625 620.63818359375 575.4698486328125 602.192626953125Q571.566162109375 583.7470703125 559.12646484375 570.801513671875Q546.686767578125 557.85595703125 527.36767578125 554.663330078125Q508.048583984375 551.470703125 485.35009765625 564.09716796875Q458.795654296875 580.33837890625 430.3978271484375 586.772216796875Q402 593.2060546875 375.324951171875 593.2060546875Q322.0234375 593.2060546875 297.15576171875 567.3685302734375Q272.2880859375 541.531005859375 272.2880859375 495.10888671875V376.192626953125L256.7822265625 402.38525390625H387.072021484375Q408.951416015625 402.38525390625 423.704345703125 388.9757080078125Q438.457275390625 375.566162109375 438.457275390625 353.686767578125Q438.457275390625 332.807373046875 423.704345703125 318.8978271484375Q408.951416015625 304.98828125 387.072021484375 304.98828125H272.2880859375V125.360107421875H510.98828125Q538.686767578125 125.360107421875 556.6624755859375 107.8843994140625Q574.63818359375 90.40869140625 574.63818359375 63.0234375Q574.63818359375 36.324951171875 556.6624755859375 18.1624755859375Q538.686767578125 0 510.98828125 0Z" fill="#132440" transform="translate(294 400) scale(0.1135 -0.1135) translate(-304.8 -357.8)"/></g></g></g><path d="M3.50 0.00V-1.06L8.98 -3.76V-39.80L3.50 -42.50V-43.56H23.96Q31.75 -43.56 36.47 -40.76Q41.18 -37.95 41.18 -31.81Q41.18 -28.12 38.74 -25.31Q36.30 -22.51 32.04 -20.92Q27.79 -19.34 22.37 -19.34H17.23V-3.76L23.69 -1.06V0.00ZM20.99 -39.93H17.23V-22.70H21.45Q26.66 -22.70 29.63 -25.11Q32.60 -27.52 32.60 -31.22Q32.60 -35.84 29.60 -37.88Q26.60 -39.93 20.99 -39.93ZM59.99 0.66Q53.33 0.66 49.50 -3.23Q45.67 -7.13 45.67 -13.60Q45.67 -18.61 47.75 -22.44Q49.83 -26.27 53.33 -28.45Q56.83 -30.62 61.05 -30.62Q66.33 -30.62 69.30 -26.99Q72.27 -23.36 72.34 -16.76L72.07 -16.43H53.06Q53.06 -13.53 54.12 -11.05Q55.18 -8.58 57.52 -7.06Q59.86 -5.54 63.82 -5.54Q65.67 -5.54 67.78 -6.11Q69.89 -6.67 72.20 -7.85H72.40V-6.93Q70.82 -3.70 67.58 -1.52Q64.35 0.66 59.99 0.66ZM59.73 -27.65Q57.09 -27.65 55.41 -25.51Q53.72 -23.36 53.26 -19.40H65.93Q65.34 -23.96 63.79 -25.81Q62.24 -27.65 59.73 -27.65ZM77.95 0.00V-1.06L82.24 -3.17V-22.84L78.14 -26.07V-26.73L88.57 -30.62H89.17L89.83 -24.49H90.09Q92.40 -27.79 94.38 -29.14Q96.36 -30.49 98.34 -30.49Q99.99 -30.49 100.95 -29.73Q101.90 -28.97 101.90 -27.59Q101.90 -27.19 101.64 -26.20L100.85 -23.10L94.38 -24.55Q91.74 -23.63 89.83 -21.19V-3.17L94.91 -1.06V0.00ZM116.42 0.66Q113.19 0.66 110.88 0.07Q108.57 -0.53 106.26 -1.65V-9.24H107.18L109.43 -5.68Q111.67 -2.05 116.16 -2.05Q118.73 -2.05 120.12 -3.14Q121.51 -4.22 121.51 -6.14Q121.51 -7.72 120.71 -8.71Q119.92 -9.70 118.24 -10.49Q116.56 -11.29 113.98 -12.41Q110.42 -13.93 108.64 -15.87Q106.85 -17.82 106.85 -20.92Q106.85 -23.63 108.27 -25.81Q109.69 -27.98 112.10 -29.30Q114.51 -30.62 117.35 -30.62Q121.90 -30.62 125.99 -28.51V-20.92H125.00L122.89 -24.16Q121.70 -26.07 120.38 -26.93Q119.06 -27.79 117.35 -27.79Q115.24 -27.79 113.98 -26.73Q112.73 -25.67 112.73 -23.83Q112.73 -21.91 114.18 -20.79Q115.63 -19.67 119.26 -18.15Q121.18 -17.36 122.99 -16.40Q124.81 -15.44 126.03 -13.73Q127.25 -12.01 127.25 -8.91Q127.25 -5.87 125.63 -3.73Q124.01 -1.58 121.51 -0.46Q119.00 0.66 116.42 0.66ZM149.16 0.66Q144.61 0.66 141.17 -1.42Q137.74 -3.50 135.83 -7.06Q133.91 -10.63 133.91 -14.98Q133.91 -19.34 135.83 -22.87Q137.74 -26.40 141.17 -28.51Q144.61 -30.62 149.16 -30.62Q153.71 -30.62 157.15 -28.51Q160.58 -26.40 162.49 -22.87Q164.41 -19.34 164.41 -14.98Q164.41 -10.63 162.49 -7.06Q160.58 -3.50 157.15 -1.42Q153.71 0.66 149.16 0.66ZM149.95 -2.44Q152.20 -2.44 153.62 -4.03Q155.03 -5.61 155.69 -8.18Q156.35 -10.76 156.35 -13.66Q156.35 -17.23 155.56 -20.39Q154.77 -23.56 153.02 -25.58Q151.27 -27.59 148.50 -27.59Q146.26 -27.59 144.80 -26.00Q143.35 -24.42 142.66 -21.85Q141.97 -19.27 141.97 -16.37Q141.97 -12.80 142.79 -9.60Q143.62 -6.40 145.40 -4.42Q147.18 -2.44 149.95 -2.44ZM169.62 0.00V-1.06L173.91 -3.17V-23.10L169.82 -26.07V-26.73L180.25 -30.62H180.91L181.50 -25.74H181.83Q184.27 -28.12 186.55 -29.37Q188.83 -30.62 191.73 -30.62Q195.69 -30.62 198.23 -28.61Q200.77 -26.60 200.77 -22.64V-3.17L205.06 -1.06V0.00H189.22V-1.06L193.12 -3.17V-19.80Q193.12 -22.31 191.56 -23.66Q190.01 -25.01 187.64 -25.01Q186.12 -25.01 184.40 -24.49Q182.69 -23.96 181.57 -23.03V-3.17L185.46 -1.06V0.00ZM216.81 0.66Q213.44 0.66 211.37 -1.32Q209.29 -3.30 209.29 -6.60Q209.29 -10.03 211.53 -12.24Q213.77 -14.45 219.71 -15.91L226.12 -17.49V-21.85Q226.12 -24.29 224.56 -25.81Q223.01 -27.32 220.70 -27.32Q219.78 -27.32 218.86 -27.13Q217.93 -26.93 216.81 -26.40V-19.93H211.99Q210.87 -19.93 210.44 -20.46Q210.01 -20.99 210.01 -22.31Q210.01 -24.22 211.79 -26.14Q213.58 -28.05 216.51 -29.34Q219.45 -30.62 222.95 -30.62Q228.10 -30.62 230.93 -28.55Q233.77 -26.47 233.77 -22.70V-4.69Q234.23 -4.22 235.06 -3.93Q235.88 -3.63 237.14 -3.63H239.32L239.51 -3.43V-2.84Q238.72 -1.52 237.07 -0.43Q235.42 0.66 232.85 0.66Q230.41 0.66 228.86 -0.50Q227.30 -1.65 226.58 -3.63H226.12Q224.33 -1.65 221.93 -0.50Q219.52 0.66 216.81 0.66ZM216.55 -8.32Q216.55 -6.27 217.77 -5.21Q218.99 -4.16 221.17 -4.16Q223.48 -4.16 226.12 -5.28V-14.98Q221.96 -14.12 219.91 -13.17Q217.87 -12.21 217.21 -11.02Q216.55 -9.83 216.55 -8.32ZM242.09 0.00V-1.06L246.44 -3.17V-41.98L242.29 -45.21V-45.87L253.44 -49.50H254.03V-3.17L258.06 -1.06V0.00ZM280.43 0.00V-1.06L285.91 -3.76V-39.80L280.43 -42.50V-43.56H301.62Q309.21 -43.56 314.52 -40.99Q319.84 -38.41 322.64 -33.92Q325.45 -29.44 325.45 -23.76Q325.45 -18.61 323.63 -14.29Q321.82 -9.97 318.55 -6.77Q315.28 -3.56 310.83 -1.78Q306.37 0.00 301.16 0.00ZM299.38 -39.93H294.16V-3.63H300.37Q305.58 -3.63 309.24 -5.84Q312.91 -8.05 314.85 -12.11Q316.80 -16.17 316.80 -21.71Q316.80 -30.03 312.35 -34.98Q307.89 -39.93 299.38 -39.93ZM339.24 0.66Q335.87 0.66 333.80 -1.32Q331.72 -3.30 331.72 -6.60Q331.72 -10.03 333.96 -12.24Q336.20 -14.45 342.14 -15.91L348.55 -17.49V-21.85Q348.55 -24.29 347.00 -25.81Q345.44 -27.32 343.13 -27.32Q342.21 -27.32 341.29 -27.13Q340.36 -26.93 339.24 -26.40V-19.93H334.42Q333.30 -19.93 332.87 -20.46Q332.44 -20.99 332.44 -22.31Q332.44 -24.22 334.22 -26.14Q336.01 -28.05 338.94 -29.34Q341.88 -30.62 345.38 -30.62Q350.53 -30.62 353.36 -28.55Q356.20 -26.47 356.20 -22.70V-4.69Q356.66 -4.22 357.49 -3.93Q358.31 -3.63 359.57 -3.63H361.75L361.94 -3.43V-2.84Q361.15 -1.52 359.50 -0.43Q357.85 0.66 355.28 0.66Q352.84 0.66 351.28 -0.50Q349.73 -1.65 349.01 -3.63H348.55Q346.76 -1.65 344.36 -0.50Q341.95 0.66 339.24 0.66ZM338.98 -8.32Q338.98 -6.27 340.20 -5.21Q341.42 -4.16 343.60 -4.16Q345.91 -4.16 348.55 -5.28V-14.98Q344.39 -14.12 342.34 -13.17Q340.30 -12.21 339.64 -11.02Q338.98 -9.83 338.98 -8.32ZM376.33 0.66Q373.10 0.66 370.79 0.07Q368.48 -0.53 366.17 -1.65V-9.24H367.09L369.34 -5.68Q371.58 -2.05 376.07 -2.05Q378.64 -2.05 380.03 -3.14Q381.41 -4.22 381.41 -6.14Q381.41 -7.72 380.62 -8.71Q379.83 -9.70 378.15 -10.49Q376.46 -11.29 373.89 -12.41Q370.33 -13.93 368.54 -15.87Q366.76 -17.82 366.76 -20.92Q366.76 -23.63 368.18 -25.81Q369.60 -27.98 372.01 -29.30Q374.42 -30.62 377.26 -30.62Q381.81 -30.62 385.90 -28.51V-20.92H384.91L382.80 -24.16Q381.61 -26.07 380.29 -26.93Q378.97 -27.79 377.26 -27.79Q375.14 -27.79 373.89 -26.73Q372.64 -25.67 372.64 -23.83Q372.64 -21.91 374.09 -20.79Q375.54 -19.67 379.17 -18.15Q381.08 -17.36 382.90 -16.40Q384.71 -15.44 385.94 -13.73Q387.16 -12.01 387.16 -8.91Q387.16 -5.87 385.54 -3.73Q383.92 -1.58 381.41 -0.46Q378.91 0.66 376.33 0.66ZM393.62 0.00V-1.06L397.91 -3.17V-41.98L393.82 -45.21V-45.87L404.91 -49.50H405.57V-25.74H405.83Q408.28 -28.12 410.55 -29.37Q412.83 -30.62 415.73 -30.62Q419.69 -30.62 422.24 -28.61Q424.78 -26.60 424.78 -22.64V-3.17L429.07 -1.06V0.00H413.23V-1.06L417.12 -3.04V-19.80Q417.12 -22.31 415.57 -23.66Q414.02 -25.01 411.64 -25.01Q410.12 -25.01 408.41 -24.49Q406.69 -23.96 405.57 -23.03V-3.04L409.46 -1.06V0.00ZM436.52 0.40V-41.98L432.43 -45.21V-45.87L443.52 -49.50H444.18V-26.60H444.51Q449.20 -30.62 454.15 -30.62Q457.25 -30.62 459.79 -28.88Q462.33 -27.13 463.85 -23.93Q465.37 -20.72 465.37 -16.30Q465.37 -10.96 463.29 -7.16Q461.21 -3.37 457.68 -1.35Q454.15 0.66 449.92 0.66Q444.31 0.66 440.22 -1.58L437.18 0.40ZM449.46 -25.54Q446.82 -25.54 444.18 -23.96V-5.08Q446.69 -2.71 450.32 -2.71Q452.23 -2.71 453.95 -3.79Q455.66 -4.88 456.72 -7.49Q457.78 -10.10 457.78 -14.72Q457.78 -20.26 455.27 -22.90Q452.76 -25.54 449.46 -25.54ZM486.68 0.66Q482.13 0.66 478.70 -1.42Q475.27 -3.50 473.35 -7.06Q471.44 -10.63 471.44 -14.98Q471.44 -19.34 473.35 -22.87Q475.27 -26.40 478.70 -28.51Q482.13 -30.62 486.68 -30.62Q491.24 -30.62 494.67 -28.51Q498.10 -26.40 500.02 -22.87Q501.93 -19.34 501.93 -14.98Q501.93 -10.63 500.02 -7.06Q498.10 -3.50 494.67 -1.42Q491.24 0.66 486.68 0.66ZM487.48 -2.44Q489.72 -2.44 491.14 -4.03Q492.56 -5.61 493.22 -8.18Q493.88 -10.76 493.88 -13.66Q493.88 -17.23 493.09 -20.39Q492.29 -23.56 490.55 -25.58Q488.80 -27.59 486.02 -27.59Q483.78 -27.59 482.33 -26.00Q480.88 -24.42 480.18 -21.85Q479.49 -19.27 479.49 -16.37Q479.49 -12.80 480.32 -9.60Q481.14 -6.40 482.92 -4.42Q484.70 -2.44 487.48 -2.44ZM514.93 0.66Q511.57 0.66 509.49 -1.32Q507.41 -3.30 507.41 -6.60Q507.41 -10.03 509.65 -12.24Q511.90 -14.45 517.84 -15.91L524.24 -17.49V-21.85Q524.24 -24.29 522.69 -25.81Q521.14 -27.32 518.83 -27.32Q517.90 -27.32 516.98 -27.13Q516.05 -26.93 514.93 -26.40V-19.93H510.11Q508.99 -19.93 508.56 -20.46Q508.13 -20.99 508.13 -22.31Q508.13 -24.22 509.92 -26.14Q511.70 -28.05 514.63 -29.34Q517.57 -30.62 521.07 -30.62Q526.22 -30.62 529.06 -28.55Q531.89 -26.47 531.89 -22.70V-4.69Q532.36 -4.22 533.18 -3.93Q534.01 -3.63 535.26 -3.63H537.44L537.64 -3.43V-2.84Q536.84 -1.52 535.19 -0.43Q533.54 0.66 530.97 0.66Q528.53 0.66 526.98 -0.50Q525.43 -1.65 524.70 -3.63H524.24Q522.46 -1.65 520.05 -0.50Q517.64 0.66 514.93 0.66ZM514.67 -8.32Q514.67 -6.27 515.89 -5.21Q517.11 -4.16 519.29 -4.16Q521.60 -4.16 524.24 -5.28V-14.98Q520.08 -14.12 518.03 -13.17Q515.99 -12.21 515.33 -11.02Q514.67 -9.83 514.67 -8.32ZM540.80 0.00V-1.06L545.09 -3.17V-22.84L541.00 -26.07V-26.73L551.43 -30.62H552.02L552.68 -24.49H552.95Q555.26 -27.79 557.24 -29.14Q559.22 -30.49 561.20 -30.49Q562.85 -30.49 563.81 -29.73Q564.76 -28.97 564.76 -27.59Q564.76 -27.19 564.50 -26.20L563.71 -23.10L557.24 -24.55Q554.60 -23.63 552.68 -21.19V-3.17L557.77 -1.06V0.00ZM579.08 0.66Q575.98 0.66 573.41 -0.99Q570.83 -2.64 569.32 -5.68Q567.80 -8.71 567.80 -12.80Q567.80 -18.41 569.88 -22.37Q571.96 -26.33 575.52 -28.48Q579.08 -30.62 583.51 -30.62Q586.67 -30.62 589.05 -30.03V-41.98L584.63 -45.28V-45.87L596.05 -49.50H596.71V-2.97L601.33 -1.06V0.00H589.71L589.12 -3.30H588.72Q586.21 -1.25 583.93 -0.30Q581.66 0.66 579.08 0.66ZM575.45 -14.65Q575.45 -9.37 577.96 -6.90Q580.47 -4.42 583.77 -4.42Q586.41 -4.42 589.05 -6.01V-24.88Q587.86 -26.00 586.58 -26.60Q585.29 -27.19 583.70 -27.19Q581.46 -27.19 579.58 -26.07Q577.70 -24.95 576.58 -22.21Q575.45 -19.47 575.45 -14.65ZM623.17 0.00V-1.06L628.65 -3.76V-39.80L623.17 -42.50V-43.56H643.63Q651.42 -43.56 656.14 -40.76Q660.86 -37.95 660.86 -31.81Q660.86 -28.12 658.42 -25.31Q655.97 -22.51 651.72 -20.92Q647.46 -19.34 642.05 -19.34H636.90V-3.76L643.37 -1.06V0.00ZM640.66 -39.93H636.90V-22.70H641.12Q646.34 -22.70 649.31 -25.11Q652.28 -27.52 652.28 -31.22Q652.28 -35.84 649.27 -37.88Q646.27 -39.93 640.66 -39.93ZM665.87 0.00V-1.06L670.16 -3.17V-22.84L666.07 -26.07V-26.73L676.50 -30.62H677.09L677.75 -24.49H678.02Q680.33 -27.79 682.31 -29.14Q684.29 -30.49 686.27 -30.49Q687.92 -30.49 688.88 -29.73Q689.83 -28.97 689.83 -27.59Q689.83 -27.19 689.57 -26.20L688.78 -23.10L682.31 -24.55Q679.67 -23.63 677.75 -21.19V-3.17L682.84 -1.06V0.00ZM708.38 0.66Q703.82 0.66 700.39 -1.42Q696.96 -3.50 695.05 -7.06Q693.13 -10.63 693.13 -14.98Q693.13 -19.34 695.05 -22.87Q696.96 -26.40 700.39 -28.51Q703.82 -30.62 708.38 -30.62Q712.93 -30.62 716.36 -28.51Q719.80 -26.40 721.71 -22.87Q723.62 -19.34 723.62 -14.98Q723.62 -10.63 721.71 -7.06Q719.80 -3.50 716.36 -1.42Q712.93 0.66 708.38 0.66ZM709.17 -2.44Q711.41 -2.44 712.83 -4.03Q714.25 -5.61 714.91 -8.18Q715.57 -10.76 715.57 -13.66Q715.57 -17.23 714.78 -20.39Q713.99 -23.56 712.24 -25.58Q710.49 -27.59 707.72 -27.59Q705.47 -27.59 704.02 -26.00Q702.57 -24.42 701.88 -21.85Q701.18 -19.27 701.18 -16.37Q701.18 -12.80 702.01 -9.60Q702.83 -6.40 704.62 -4.42Q706.40 -2.44 709.17 -2.44Z" fill="#103A55" transform="translate(443.9 227.1)"/><path d="M1.48 0.00Q1.29 0.00 1.20 -0.16Q1.11 -0.32 1.19 -0.57L8.34 -20.31Q8.43 -20.55 8.56 -20.66Q8.69 -20.76 8.95 -20.76H11.77Q12.32 -20.76 12.48 -20.29L19.56 -0.56Q19.64 -0.38 19.55 -0.19Q19.47 0.00 19.26 0.00H16.61Q16.25 0.00 16.14 -0.33L14.36 -5.32Q14.32 -5.44 14.26 -5.51Q14.20 -5.57 14.02 -5.57H6.28Q6.03 -5.57 5.94 -5.33L4.11 -0.29Q4.07 -0.15 3.96 -0.08Q3.86 0.00 3.65 0.00H1.48ZM13.16 -8.19Q13.50 -8.19 13.38 -8.59L10.34 -16.97Q10.25 -17.20 10.15 -17.20Q10.04 -17.20 9.95 -16.96L6.87 -8.57Q6.73 -8.19 7.06 -8.19ZM34.97 -15.11Q36.54 -15.11 37.70 -14.59Q38.86 -14.07 39.67 -13.23Q40.47 -12.38 40.94 -11.39Q41.10 -10.98 40.73 -10.92L38.76 -10.58Q38.51 -10.52 38.38 -10.81Q37.91 -11.52 37.43 -12.00Q36.96 -12.49 36.40 -12.76Q35.85 -13.03 35.11 -13.03Q33.83 -13.03 32.87 -12.37Q31.90 -11.71 31.38 -10.46Q30.85 -9.21 30.85 -7.41Q30.85 -5.61 31.39 -4.35Q31.93 -3.08 32.91 -2.43Q33.89 -1.78 35.22 -1.78Q36.53 -1.78 37.43 -2.44Q38.33 -3.10 39.09 -4.33Q39.16 -4.46 39.24 -4.49Q39.32 -4.51 39.49 -4.46L40.95 -4.00Q41.19 -3.92 41.09 -3.57Q40.74 -2.87 40.20 -2.18Q39.66 -1.49 38.91 -0.94Q38.16 -0.39 37.18 -0.06Q36.20 0.28 34.97 0.28Q32.88 0.28 31.26 -0.69Q29.65 -1.65 28.74 -3.37Q27.83 -5.09 27.83 -7.36Q27.83 -9.65 28.75 -11.39Q29.67 -13.13 31.29 -14.12Q32.91 -15.11 34.97 -15.11ZM52.24 -1.67Q51.26 -0.74 50.09 -0.23Q48.91 0.28 47.45 0.28Q45.28 0.28 44.05 -0.85Q42.81 -1.97 42.81 -3.79Q42.81 -5.31 43.69 -6.41Q44.58 -7.51 46.28 -8.14Q47.98 -8.78 50.41 -8.89L52.22 -9.04Q52.39 -9.06 52.53 -9.15Q52.67 -9.23 52.67 -9.45V-10.16Q52.67 -11.53 51.84 -12.32Q51.00 -13.11 49.54 -13.11Q48.44 -13.11 47.51 -12.62Q46.59 -12.12 45.88 -11.06Q45.78 -10.90 45.70 -10.85Q45.61 -10.81 45.40 -10.86L43.50 -11.41Q43.38 -11.47 43.33 -11.56Q43.28 -11.66 43.41 -11.94Q44.21 -13.46 45.79 -14.28Q47.38 -15.11 49.68 -15.11Q51.69 -15.11 52.98 -14.53Q54.27 -13.95 54.89 -12.88Q55.52 -11.81 55.52 -10.36V-0.48Q55.52 -0.20 55.43 -0.10Q55.33 0.00 55.09 0.00H53.21Q53.00 0.00 52.89 -0.15Q52.79 -0.31 52.77 -0.55L52.72 -1.64Q52.65 -2.06 52.24 -1.67ZM52.67 -6.96Q52.67 -7.43 52.27 -7.40L50.76 -7.28Q49.65 -7.21 48.73 -6.98Q47.80 -6.75 47.14 -6.36Q46.48 -5.97 46.11 -5.42Q45.74 -4.87 45.74 -4.15Q45.74 -3.05 46.51 -2.43Q47.28 -1.80 48.60 -1.80Q49.44 -1.80 50.18 -2.09Q50.91 -2.38 51.47 -2.82Q52.03 -3.29 52.35 -3.80Q52.67 -4.30 52.67 -4.78V-6.96ZM62.31 -0.53Q62.31 -0.23 62.18 -0.12Q62.05 0.00 61.73 0.00H59.81Q59.32 0.00 59.32 -0.45L59.37 -20.33Q59.37 -20.76 59.74 -20.76H61.95Q62.31 -20.76 62.31 -20.35ZM66.71 0.00Q66.27 0.00 66.27 -0.44V-14.42Q66.27 -14.83 66.62 -14.83H68.81Q69.15 -14.83 69.15 -14.47V-12.93Q69.15 -12.78 69.22 -12.74Q69.30 -12.70 69.43 -12.83Q70.28 -13.54 71.03 -14.05Q71.79 -14.57 72.59 -14.84Q73.40 -15.12 74.30 -15.12Q75.91 -15.12 76.91 -14.38Q77.91 -13.63 78.27 -12.60Q78.33 -12.49 78.44 -12.52Q78.55 -12.55 78.66 -12.66Q79.47 -13.40 80.27 -13.95Q81.08 -14.50 81.93 -14.80Q82.78 -15.11 83.68 -15.11Q85.70 -15.11 86.83 -13.93Q87.96 -12.76 87.96 -10.77V-0.51Q87.96 0.00 87.45 0.00H85.40Q85.19 0.00 85.09 -0.10Q84.99 -0.21 84.99 -0.44V-10.25Q84.99 -11.48 84.39 -12.17Q83.79 -12.86 82.53 -12.86Q81.80 -12.86 81.13 -12.58Q80.46 -12.30 79.92 -11.90Q79.38 -11.50 78.96 -11.11Q78.76 -10.91 78.67 -10.74Q78.59 -10.57 78.59 -10.30V-0.51Q78.59 0.00 78.09 0.00H76.05Q75.84 0.00 75.74 -0.10Q75.63 -0.21 75.63 -0.44V-10.25Q75.63 -11.48 75.04 -12.17Q74.44 -12.86 73.18 -12.86Q72.10 -12.86 71.22 -12.34Q70.33 -11.82 69.23 -10.77V-0.48Q69.23 0.00 68.70 0.00H66.71ZM93.99 -6.39Q93.99 -5.13 94.59 -4.10Q95.19 -3.07 96.21 -2.47Q97.23 -1.87 98.48 -1.87Q99.77 -1.87 100.78 -2.40Q101.79 -2.93 102.62 -4.04Q102.71 -4.17 102.79 -4.19Q102.88 -4.20 103.04 -4.12L104.47 -3.45Q104.78 -3.30 104.53 -3.01Q103.74 -1.84 102.81 -1.11Q101.88 -0.39 100.73 -0.05Q99.59 0.28 98.17 0.28Q96.06 0.28 94.43 -0.67Q92.80 -1.62 91.86 -3.33Q90.92 -5.03 90.92 -7.25Q90.92 -9.67 91.88 -11.43Q92.85 -13.19 94.48 -14.15Q96.12 -15.11 98.13 -15.11Q100.20 -15.11 101.75 -14.20Q103.29 -13.29 104.16 -11.58Q105.03 -9.87 105.03 -7.44Q105.03 -7.19 104.98 -7.01Q104.94 -6.83 104.61 -6.82H94.26Q94.13 -6.82 94.06 -6.70Q93.99 -6.58 93.99 -6.39ZM101.62 -8.60Q101.92 -8.60 102.01 -8.68Q102.10 -8.76 102.10 -8.99Q102.10 -10.04 101.64 -10.99Q101.18 -11.94 100.32 -12.54Q99.45 -13.13 98.21 -13.13Q96.90 -13.13 95.95 -12.50Q95.01 -11.86 94.52 -10.83Q94.04 -9.79 94.04 -8.61ZM108.46 0.00Q108.22 0.00 108.12 -0.11Q108.01 -0.22 108.01 -0.44V-14.42Q108.01 -14.83 108.36 -14.83H110.51Q110.85 -14.83 110.85 -14.47V-12.70Q110.85 -12.54 110.95 -12.51Q111.05 -12.47 111.18 -12.62Q111.85 -13.45 112.57 -14.00Q113.29 -14.55 114.02 -14.83Q114.75 -15.11 115.46 -15.11Q116.47 -15.11 116.47 -14.71V-12.53Q116.47 -12.21 116.15 -12.27Q115.82 -12.33 115.43 -12.37Q115.04 -12.41 114.67 -12.41Q114.09 -12.41 113.44 -12.16Q112.79 -11.90 112.24 -11.47Q111.68 -11.03 111.33 -10.50Q110.98 -9.97 110.98 -9.40V-0.48Q110.98 0.00 110.45 0.00H108.46ZM125.47 0.00Q125.02 0.00 125.02 -0.44V-14.42Q125.02 -14.83 125.38 -14.83H127.58Q127.92 -14.83 127.92 -14.47V-12.93Q127.92 -12.78 127.99 -12.74Q128.06 -12.70 128.20 -12.83Q129.07 -13.54 129.85 -14.05Q130.63 -14.57 131.45 -14.84Q132.27 -15.11 133.22 -15.11Q135.35 -15.11 136.52 -13.93Q137.70 -12.75 137.70 -10.82V-0.51Q137.70 0.00 137.20 0.00H135.15Q134.93 0.00 134.83 -0.10Q134.73 -0.21 134.73 -0.44V-10.25Q134.73 -11.48 134.09 -12.17Q133.44 -12.86 132.10 -12.86Q131.35 -12.86 130.70 -12.62Q130.05 -12.39 129.41 -11.93Q128.76 -11.47 127.99 -10.77V-0.48Q127.99 0.00 127.46 0.00H125.47ZM143.74 -6.39Q143.74 -5.13 144.34 -4.10Q144.94 -3.07 145.96 -2.47Q146.98 -1.87 148.23 -1.87Q149.52 -1.87 150.53 -2.40Q151.54 -2.93 152.37 -4.04Q152.46 -4.17 152.54 -4.19Q152.62 -4.20 152.79 -4.12L154.22 -3.45Q154.52 -3.30 154.28 -3.01Q153.49 -1.84 152.56 -1.11Q151.63 -0.39 150.48 -0.05Q149.34 0.28 147.92 0.28Q145.81 0.28 144.18 -0.67Q142.54 -1.62 141.61 -3.33Q140.67 -5.03 140.67 -7.25Q140.67 -9.67 141.63 -11.43Q142.59 -13.19 144.23 -14.15Q145.87 -15.11 147.87 -15.11Q149.95 -15.11 151.49 -14.20Q153.04 -13.29 153.91 -11.58Q154.78 -9.87 154.78 -7.44Q154.78 -7.19 154.73 -7.01Q154.69 -6.83 154.36 -6.82H144.01Q143.88 -6.82 143.81 -6.70Q143.74 -6.58 143.74 -6.39ZM151.37 -8.60Q151.67 -8.60 151.76 -8.68Q151.85 -8.76 151.85 -8.99Q151.85 -10.04 151.39 -10.99Q150.93 -11.94 150.07 -12.54Q149.20 -13.13 147.96 -13.13Q146.65 -13.13 145.70 -12.50Q144.76 -11.86 144.27 -10.83Q143.79 -9.79 143.79 -8.61ZM176.74 -14.83Q176.96 -14.83 177.05 -14.68Q177.14 -14.54 177.07 -14.35L172.69 -0.39Q172.64 -0.17 172.51 -0.09Q172.39 0.00 172.15 0.00H170.50Q170.00 0.00 169.87 -0.42L166.83 -10.01Q166.74 -10.27 166.64 -10.27Q166.55 -10.27 166.48 -10.01L163.54 -0.39Q163.49 -0.17 163.36 -0.09Q163.24 0.00 163.00 0.00H161.27Q160.78 0.00 160.65 -0.42L156.20 -14.33Q156.14 -14.54 156.24 -14.68Q156.33 -14.83 156.56 -14.83H158.72Q158.91 -14.83 159.04 -14.74Q159.18 -14.64 159.22 -14.47L162.30 -4.52Q162.37 -4.25 162.49 -4.26Q162.61 -4.27 162.70 -4.55L165.72 -14.50Q165.78 -14.66 165.90 -14.74Q166.02 -14.83 166.19 -14.83H167.82Q168.00 -14.83 168.13 -14.74Q168.27 -14.64 168.31 -14.47L171.44 -4.52Q171.51 -4.25 171.62 -4.26Q171.73 -4.27 171.82 -4.55L174.79 -14.48Q174.87 -14.64 175.01 -14.74Q175.14 -14.83 175.31 -14.83H176.74ZM190.41 -12.70Q190.15 -12.70 190.15 -12.43V-4.23Q190.15 -3.03 190.60 -2.59Q191.05 -2.16 191.97 -2.16H193.77Q193.93 -2.16 194.02 -2.06Q194.11 -1.97 194.11 -1.81L194.10 -0.61Q194.10 -0.25 193.66 -0.15Q193.31 -0.10 192.78 -0.06Q192.25 -0.03 191.73 -0.01Q191.20 0.00 190.82 0.00Q189.01 0.00 188.09 -0.85Q187.18 -1.70 187.18 -3.49V-12.37Q187.18 -12.70 186.89 -12.70H184.81Q184.44 -12.70 184.44 -13.05V-14.51Q184.44 -14.83 184.79 -14.83H187.01Q187.24 -14.83 187.25 -15.08L187.58 -19.47Q187.61 -19.87 187.92 -19.87H189.85Q190.22 -19.87 190.22 -19.43V-15.08Q190.22 -14.84 190.46 -14.84H193.81Q194.16 -14.84 194.16 -14.52V-13.05Q194.16 -12.70 193.77 -12.70ZM205.35 -1.67Q204.37 -0.74 203.19 -0.23Q202.02 0.28 200.55 0.28Q198.39 0.28 197.15 -0.85Q195.91 -1.97 195.91 -3.79Q195.91 -5.31 196.80 -6.41Q197.68 -7.51 199.38 -8.14Q201.08 -8.78 203.52 -8.89L205.32 -9.04Q205.50 -9.06 205.64 -9.15Q205.78 -9.23 205.78 -9.45V-10.16Q205.78 -11.53 204.94 -12.32Q204.11 -13.11 202.65 -13.11Q201.55 -13.11 200.62 -12.62Q199.69 -12.12 198.98 -11.06Q198.89 -10.90 198.80 -10.85Q198.72 -10.81 198.51 -10.86L196.60 -11.41Q196.49 -11.47 196.44 -11.56Q196.39 -11.66 196.52 -11.94Q197.31 -13.46 198.90 -14.28Q200.48 -15.11 202.78 -15.11Q204.79 -15.11 206.08 -14.53Q207.37 -13.95 208.00 -12.88Q208.63 -11.81 208.63 -10.36V-0.48Q208.63 -0.20 208.53 -0.10Q208.44 0.00 208.20 0.00H206.32Q206.10 0.00 206.00 -0.15Q205.89 -0.31 205.87 -0.55L205.83 -1.64Q205.76 -2.06 205.35 -1.67ZM205.78 -6.96Q205.78 -7.43 205.37 -7.40L203.86 -7.28Q202.75 -7.21 201.83 -6.98Q200.91 -6.75 200.24 -6.36Q199.58 -5.97 199.21 -5.42Q198.84 -4.87 198.84 -4.15Q198.84 -3.05 199.62 -2.43Q200.39 -1.80 201.70 -1.80Q202.54 -1.80 203.28 -2.09Q204.02 -2.38 204.57 -2.82Q205.14 -3.29 205.46 -3.80Q205.78 -4.30 205.78 -4.78V-6.96ZM212.93 0.00Q212.64 0.00 212.54 -0.12Q212.43 -0.24 212.43 -0.50V-20.33Q212.43 -20.76 212.80 -20.76H215.06Q215.40 -20.76 215.40 -20.34V-13.58Q215.40 -13.28 215.52 -13.26Q215.64 -13.24 215.83 -13.41Q216.16 -13.72 216.73 -14.11Q217.30 -14.50 218.15 -14.80Q219.00 -15.11 220.13 -15.11Q222.14 -15.11 223.45 -14.12Q224.77 -13.13 225.42 -11.41Q226.07 -9.70 226.07 -7.49Q226.07 -3.92 224.41 -1.82Q222.75 0.28 219.70 0.28Q218.51 0.28 217.61 -0.09Q216.71 -0.46 216.12 -0.99Q215.52 -1.52 215.19 -1.94Q215.08 -2.08 214.99 -2.06Q214.90 -2.04 214.88 -1.86L214.66 -0.48Q214.58 0.00 214.11 0.00ZM215.40 -5.04Q215.40 -4.10 215.91 -3.34Q216.43 -2.58 217.26 -2.14Q218.08 -1.70 219.01 -1.70Q220.17 -1.70 221.08 -2.29Q221.99 -2.88 222.51 -4.15Q223.03 -5.43 223.03 -7.45Q223.03 -10.21 222.05 -11.64Q221.07 -13.08 219.18 -13.08Q218.01 -13.08 217.04 -12.54Q216.07 -12.00 215.40 -11.18ZM232.11 -11.22Q232.11 -10.71 231.51 -10.71H229.14Q228.66 -10.71 228.66 -11.17V-13.87Q228.66 -14.28 229.00 -14.28H231.78Q232.11 -14.28 232.11 -13.92ZM232.11 -0.60Q232.11 -0.08 231.51 -0.08H229.14Q228.66 -0.08 228.66 -0.55V-3.25Q228.66 -3.66 229.00 -3.66H231.78Q232.11 -3.66 232.11 -3.30ZM242.40 4.62Q241.57 4.62 241.14 4.55Q240.71 4.49 240.71 4.20V2.77Q240.71 2.59 240.87 2.48Q241.03 2.37 241.51 2.37H243.31Q243.90 2.37 244.38 2.02Q244.87 1.67 245.18 1.14Q245.49 0.61 245.60 0.04Q245.70 -0.53 245.52 -0.97L240.18 -14.30Q240.10 -14.51 240.19 -14.67Q240.28 -14.83 240.53 -14.83H242.83Q243.01 -14.83 243.14 -14.74Q243.27 -14.64 243.32 -14.47L247.16 -4.40Q247.26 -4.15 247.40 -4.15Q247.54 -4.15 247.66 -4.46L251.44 -14.48Q251.52 -14.64 251.63 -14.74Q251.74 -14.83 251.91 -14.83H253.56Q253.78 -14.83 253.87 -14.68Q253.96 -14.52 253.87 -14.35L247.86 0.91Q247.39 2.05 246.87 2.77Q246.34 3.49 245.70 3.89Q245.05 4.30 244.25 4.46Q243.45 4.62 242.40 4.62ZM262.28 0.28Q260.14 0.28 258.51 -0.69Q256.89 -1.66 255.98 -3.38Q255.08 -5.10 255.08 -7.33Q255.08 -9.65 256.01 -11.40Q256.94 -13.15 258.57 -14.13Q260.20 -15.11 262.31 -15.11Q264.48 -15.11 266.09 -14.12Q267.70 -13.13 268.60 -11.38Q269.51 -9.63 269.51 -7.36Q269.51 -5.12 268.60 -3.40Q267.69 -1.68 266.06 -0.70Q264.44 0.28 262.28 0.28ZM262.33 -1.82Q263.66 -1.82 264.59 -2.49Q265.51 -3.15 266.00 -4.40Q266.49 -5.65 266.49 -7.41Q266.49 -9.19 265.99 -10.45Q265.50 -11.71 264.56 -12.38Q263.63 -13.05 262.31 -13.05Q261.01 -13.05 260.06 -12.38Q259.11 -11.71 258.61 -10.45Q258.10 -9.19 258.10 -7.41Q258.10 -5.66 258.61 -4.40Q259.11 -3.15 260.06 -2.49Q261.01 -1.82 262.33 -1.82ZM278.01 -1.96Q279.11 -1.96 280.11 -2.56Q281.11 -3.16 282.07 -4.16V-14.35Q282.07 -14.83 282.59 -14.83H284.61Q285.05 -14.83 285.05 -14.38L285.01 -0.40Q285.01 0.00 284.66 0.00H282.49Q282.15 0.00 282.15 -0.36V-1.92Q282.15 -2.07 282.08 -2.11Q282.02 -2.14 281.88 -2.02Q280.45 -0.73 279.27 -0.23Q278.09 0.28 276.87 0.28Q275.60 0.28 274.61 -0.25Q273.61 -0.78 273.04 -1.76Q272.46 -2.75 272.46 -4.06V-14.32Q272.46 -14.83 272.96 -14.83H275.01Q275.42 -14.83 275.42 -14.38V-4.68Q275.42 -3.46 276.11 -2.71Q276.80 -1.96 278.01 -1.96ZM289.41 0.00Q289.17 0.00 289.06 -0.11Q288.96 -0.22 288.96 -0.44V-14.42Q288.96 -14.83 289.31 -14.83H291.46Q291.79 -14.83 291.79 -14.47V-12.70Q291.79 -12.54 291.90 -12.51Q292.00 -12.47 292.12 -12.62Q292.80 -13.45 293.52 -14.00Q294.23 -14.55 294.97 -14.83Q295.70 -15.11 296.41 -15.11Q297.41 -15.11 297.41 -14.71V-12.53Q297.41 -12.21 297.10 -12.27Q296.77 -12.33 296.38 -12.37Q295.99 -12.41 295.61 -12.41Q295.03 -12.41 294.39 -12.16Q293.74 -11.90 293.18 -11.47Q292.63 -11.03 292.28 -10.50Q291.92 -9.97 291.92 -9.40V-0.48Q291.92 0.00 291.40 0.00H289.41ZM306.46 0.00Q306.18 0.00 306.08 -0.12Q305.97 -0.24 305.97 -0.50V-20.33Q305.97 -20.76 306.34 -20.76H308.60Q308.94 -20.76 308.94 -20.34V-13.58Q308.94 -13.28 309.05 -13.26Q309.17 -13.24 309.37 -13.41Q309.69 -13.72 310.27 -14.11Q310.84 -14.50 311.69 -14.80Q312.54 -15.11 313.66 -15.11Q315.68 -15.11 316.99 -14.12Q318.30 -13.13 318.95 -11.41Q319.61 -9.70 319.61 -7.49Q319.61 -3.92 317.95 -1.82Q316.28 0.28 313.24 0.28Q312.04 0.28 311.15 -0.09Q310.25 -0.46 309.65 -0.99Q309.06 -1.52 308.73 -1.94Q308.61 -2.08 308.52 -2.06Q308.44 -2.04 308.41 -1.86L308.19 -0.48Q308.11 0.00 307.65 0.00ZM308.94 -5.04Q308.94 -4.10 309.45 -3.34Q309.97 -2.58 310.79 -2.14Q311.62 -1.70 312.55 -1.70Q313.71 -1.70 314.61 -2.29Q315.52 -2.88 316.05 -4.15Q316.57 -5.43 316.57 -7.45Q316.57 -10.21 315.59 -11.64Q314.61 -13.08 312.72 -13.08Q311.55 -13.08 310.57 -12.54Q309.60 -12.00 308.94 -11.18ZM328.18 -1.96Q329.28 -1.96 330.28 -2.56Q331.28 -3.16 332.23 -4.16V-14.35Q332.23 -14.83 332.76 -14.83H334.77Q335.22 -14.83 335.22 -14.38L335.18 -0.40Q335.18 0.00 334.83 0.00H332.66Q332.32 0.00 332.32 -0.36V-1.92Q332.32 -2.07 332.25 -2.11Q332.19 -2.14 332.05 -2.02Q330.62 -0.73 329.44 -0.23Q328.26 0.28 327.04 0.28Q325.77 0.28 324.78 -0.25Q323.78 -0.78 323.20 -1.76Q322.63 -2.75 322.63 -4.06V-14.32Q322.63 -14.83 323.13 -14.83H325.18Q325.59 -14.83 325.59 -14.38V-4.68Q325.59 -3.46 326.28 -2.71Q326.97 -1.96 328.18 -1.96ZM349.58 0.00Q349.39 0.00 349.26 -0.11Q349.13 -0.21 349.13 -0.45V-1.50Q349.13 -1.72 349.02 -1.74Q348.92 -1.77 348.76 -1.62Q348.41 -1.28 347.84 -0.83Q347.28 -0.38 346.45 -0.05Q345.61 0.28 344.47 0.28Q342.73 0.28 341.35 -0.56Q339.97 -1.39 339.16 -3.07Q338.36 -4.74 338.36 -7.23Q338.36 -9.59 339.19 -11.36Q340.03 -13.13 341.49 -14.12Q342.94 -15.11 344.78 -15.11Q346.07 -15.11 346.98 -14.69Q347.89 -14.26 348.63 -13.62Q348.87 -13.44 348.97 -13.48Q349.08 -13.53 349.08 -13.83V-20.35Q349.08 -20.76 349.43 -20.76H351.68Q352.03 -20.76 352.03 -20.35V-0.49Q352.03 -0.22 351.93 -0.11Q351.82 0.00 351.52 0.00H349.58ZM349.06 -11.37Q348.27 -12.18 347.46 -12.61Q346.65 -13.05 345.63 -13.05Q344.41 -13.05 343.44 -12.42Q342.47 -11.78 341.92 -10.50Q341.38 -9.22 341.38 -7.30Q341.38 -5.35 341.94 -4.11Q342.49 -2.87 343.43 -2.30Q344.37 -1.73 345.49 -1.73Q346.51 -1.73 347.32 -2.21Q348.12 -2.68 348.59 -3.40Q349.06 -4.11 349.06 -4.83V-11.37ZM369.86 -15.20Q370.13 -15.20 370.27 -15.09Q370.40 -14.97 370.40 -14.70V-13.44Q370.40 -13.13 370.27 -12.99Q370.13 -12.85 369.82 -12.88Q369.40 -12.90 369.06 -12.87Q368.71 -12.85 368.41 -12.73Q367.71 -12.52 367.85 -12.09Q367.96 -11.79 368.11 -11.40Q368.26 -11.00 368.26 -10.38Q368.26 -9.14 367.58 -8.11Q366.90 -7.07 365.50 -6.46Q364.11 -5.85 361.97 -5.85Q360.65 -5.85 359.88 -5.69Q359.11 -5.54 358.79 -5.28Q358.46 -5.02 358.46 -4.73Q358.46 -4.31 359.01 -4.13Q359.56 -3.95 360.76 -3.88L364.49 -3.66Q367.09 -3.51 368.29 -2.46Q369.49 -1.41 369.49 0.28Q369.49 2.39 367.58 3.64Q365.67 4.90 362.07 4.90Q358.36 4.90 356.45 3.91Q354.53 2.93 354.53 1.06Q354.53 0.07 355.23 -0.65Q355.93 -1.38 357.16 -1.93Q357.50 -2.08 357.16 -2.24Q356.53 -2.54 356.15 -2.97Q355.78 -3.40 355.78 -4.02Q355.78 -4.48 356.07 -4.89Q356.36 -5.30 356.89 -5.65Q357.41 -6.00 358.14 -6.26Q358.29 -6.32 358.31 -6.41Q358.33 -6.50 358.15 -6.60Q356.91 -7.22 356.28 -8.15Q355.65 -9.08 355.65 -10.37Q355.65 -12.52 357.35 -13.78Q359.05 -15.05 362.22 -15.05Q363.70 -15.05 364.75 -14.72Q365.80 -14.39 366.50 -13.79Q366.68 -13.66 366.85 -13.66Q367.01 -13.67 367.15 -13.81Q367.48 -14.16 367.93 -14.48Q368.38 -14.79 368.89 -14.99Q369.40 -15.20 369.86 -15.20ZM361.96 -7.52Q363.78 -7.52 364.64 -8.29Q365.51 -9.07 365.51 -10.37Q365.51 -11.75 364.64 -12.55Q363.76 -13.36 361.96 -13.36Q360.25 -13.36 359.31 -12.55Q358.37 -11.75 358.37 -10.37Q358.37 -9.05 359.30 -8.29Q360.24 -7.52 361.96 -7.52ZM359.62 -1.51Q359.11 -1.53 358.52 -1.26Q357.93 -0.99 357.51 -0.48Q357.08 0.02 357.08 0.69Q357.08 1.49 357.64 2.06Q358.21 2.64 359.37 2.94Q360.53 3.24 362.33 3.24Q364.52 3.24 365.66 2.61Q366.80 1.97 366.80 0.72Q366.80 -0.12 366.20 -0.65Q365.59 -1.18 364.18 -1.26ZM374.71 -6.39Q374.71 -5.13 375.31 -4.10Q375.91 -3.07 376.93 -2.47Q377.95 -1.87 379.21 -1.87Q380.49 -1.87 381.50 -2.40Q382.52 -2.93 383.34 -4.04Q383.44 -4.17 383.52 -4.19Q383.60 -4.20 383.76 -4.12L385.19 -3.45Q385.50 -3.30 385.25 -3.01Q384.46 -1.84 383.53 -1.11Q382.60 -0.39 381.46 -0.05Q380.31 0.28 378.89 0.28Q376.79 0.28 375.15 -0.67Q373.52 -1.62 372.58 -3.33Q371.64 -5.03 371.64 -7.25Q371.64 -9.67 372.61 -11.43Q373.57 -13.19 375.21 -14.15Q376.84 -15.11 378.85 -15.11Q380.93 -15.11 382.47 -14.20Q384.01 -13.29 384.88 -11.58Q385.75 -9.87 385.75 -7.44Q385.75 -7.19 385.71 -7.01Q385.66 -6.83 385.33 -6.82H374.98Q374.85 -6.82 374.78 -6.70Q374.71 -6.58 374.71 -6.39ZM382.35 -8.60Q382.64 -8.60 382.73 -8.68Q382.82 -8.76 382.82 -8.99Q382.82 -10.04 382.36 -10.99Q381.90 -11.94 381.04 -12.54Q380.18 -13.13 378.94 -13.13Q377.62 -13.13 376.67 -12.50Q375.73 -11.86 375.25 -10.83Q374.76 -9.79 374.76 -8.61ZM393.04 -12.70Q392.78 -12.70 392.78 -12.43V-4.23Q392.78 -3.03 393.23 -2.59Q393.68 -2.16 394.60 -2.16H396.40Q396.56 -2.16 396.65 -2.06Q396.74 -1.97 396.74 -1.81L396.73 -0.61Q396.73 -0.25 396.29 -0.15Q395.94 -0.10 395.41 -0.06Q394.88 -0.03 394.36 -0.01Q393.83 0.00 393.45 0.00Q391.64 0.00 390.72 -0.85Q389.81 -1.70 389.81 -3.49V-12.37Q389.81 -12.70 389.52 -12.70H387.44Q387.07 -12.70 387.07 -13.05V-14.51Q387.07 -14.83 387.42 -14.83H389.64Q389.87 -14.83 389.88 -15.08L390.21 -19.47Q390.24 -19.87 390.55 -19.87H392.48Q392.85 -19.87 392.85 -19.43V-15.08Q392.85 -14.84 393.09 -14.84H396.44Q396.79 -14.84 396.79 -14.52V-13.05Q396.79 -12.70 396.40 -12.70ZM399.12 4.11Q398.95 4.11 398.88 3.97Q398.81 3.84 398.88 3.65L400.17 0.53Q400.40 0.00 399.93 0.00H399.53Q399.09 0.00 399.09 -0.40V-3.23Q399.09 -3.58 399.41 -3.58H402.22Q402.53 -3.58 402.53 -3.25V-0.63Q402.53 -0.44 402.45 -0.26L400.20 3.74Q400.09 3.92 399.89 4.01Q399.70 4.11 399.49 4.11H399.12ZM431.22 -14.83Q431.44 -14.83 431.53 -14.68Q431.62 -14.54 431.55 -14.35L427.17 -0.39Q427.12 -0.17 426.99 -0.09Q426.87 0.00 426.62 0.00H424.98Q424.48 0.00 424.35 -0.42L421.31 -10.01Q421.21 -10.27 421.12 -10.27Q421.03 -10.27 420.96 -10.01L418.01 -0.39Q417.96 -0.17 417.84 -0.09Q417.72 0.00 417.47 0.00H415.75Q415.26 0.00 415.13 -0.42L410.68 -14.33Q410.62 -14.54 410.72 -14.68Q410.81 -14.83 411.03 -14.83H413.20Q413.39 -14.83 413.52 -14.74Q413.66 -14.64 413.70 -14.47L416.78 -4.52Q416.85 -4.25 416.97 -4.26Q417.09 -4.27 417.18 -4.55L420.20 -14.50Q420.26 -14.66 420.38 -14.74Q420.50 -14.83 420.66 -14.83H422.30Q422.48 -14.83 422.61 -14.74Q422.75 -14.64 422.79 -14.47L425.91 -4.52Q425.99 -4.25 426.10 -4.26Q426.20 -4.27 426.30 -4.55L429.27 -14.48Q429.35 -14.64 429.48 -14.74Q429.62 -14.83 429.79 -14.83H431.22ZM442.28 -1.67Q441.30 -0.74 440.12 -0.23Q438.95 0.28 437.49 0.28Q435.32 0.28 434.08 -0.85Q432.85 -1.97 432.85 -3.79Q432.85 -5.31 433.73 -6.41Q434.62 -7.51 436.32 -8.14Q438.02 -8.78 440.45 -8.89L442.26 -9.04Q442.43 -9.06 442.57 -9.15Q442.71 -9.23 442.71 -9.45V-10.16Q442.71 -11.53 441.88 -12.32Q441.04 -13.11 439.58 -13.11Q438.48 -13.11 437.55 -12.62Q436.63 -12.12 435.92 -11.06Q435.82 -10.90 435.74 -10.85Q435.65 -10.81 435.44 -10.86L433.53 -11.41Q433.42 -11.47 433.37 -11.56Q433.32 -11.66 433.45 -11.94Q434.25 -13.46 435.83 -14.28Q437.42 -15.11 439.72 -15.11Q441.73 -15.11 443.02 -14.53Q444.31 -13.95 444.93 -12.88Q445.56 -11.81 445.56 -10.36V-0.48Q445.56 -0.20 445.47 -0.10Q445.37 0.00 445.13 0.00H443.25Q443.04 0.00 442.93 -0.15Q442.83 -0.31 442.80 -0.55L442.76 -1.64Q442.69 -2.06 442.28 -1.67ZM442.71 -6.96Q442.71 -7.43 442.31 -7.40L440.80 -7.28Q439.69 -7.21 438.76 -6.98Q437.84 -6.75 437.18 -6.36Q436.51 -5.97 436.15 -5.42Q435.78 -4.87 435.78 -4.15Q435.78 -3.05 436.55 -2.43Q437.32 -1.80 438.64 -1.80Q439.48 -1.80 440.21 -2.09Q440.95 -2.38 441.51 -2.82Q442.07 -3.29 442.39 -3.80Q442.71 -4.30 442.71 -4.78V-6.96ZM453.62 -12.70Q453.35 -12.70 453.35 -12.43V-4.23Q453.35 -3.03 453.81 -2.59Q454.26 -2.16 455.18 -2.16H456.98Q457.13 -2.16 457.22 -2.06Q457.32 -1.97 457.32 -1.81L457.30 -0.61Q457.30 -0.25 456.87 -0.15Q456.52 -0.10 455.99 -0.06Q455.46 -0.03 454.93 -0.01Q454.41 0.00 454.03 0.00Q452.21 0.00 451.30 -0.85Q450.39 -1.70 450.39 -3.49V-12.37Q450.39 -12.70 450.10 -12.70H448.02Q447.64 -12.70 447.64 -13.05V-14.51Q447.64 -14.83 447.99 -14.83H450.22Q450.45 -14.83 450.46 -15.08L450.79 -19.47Q450.81 -19.87 451.13 -19.87H453.06Q453.42 -19.87 453.42 -19.43V-15.08Q453.42 -14.84 453.67 -14.84H457.01Q457.36 -14.84 457.36 -14.52V-13.05Q457.36 -12.70 456.98 -12.70ZM466.14 -15.11Q467.71 -15.11 468.87 -14.59Q470.03 -14.07 470.84 -13.23Q471.64 -12.38 472.11 -11.39Q472.27 -10.98 471.90 -10.92L469.93 -10.58Q469.68 -10.52 469.55 -10.81Q469.08 -11.52 468.60 -12.00Q468.13 -12.49 467.57 -12.76Q467.02 -13.03 466.28 -13.03Q465.00 -13.03 464.04 -12.37Q463.07 -11.71 462.55 -10.46Q462.02 -9.21 462.02 -7.41Q462.02 -5.61 462.56 -4.35Q463.10 -3.08 464.08 -2.43Q465.06 -1.78 466.39 -1.78Q467.70 -1.78 468.60 -2.44Q469.50 -3.10 470.26 -4.33Q470.33 -4.46 470.41 -4.49Q470.49 -4.51 470.66 -4.46L472.12 -4.00Q472.36 -3.92 472.26 -3.57Q471.91 -2.87 471.37 -2.18Q470.83 -1.49 470.08 -0.94Q469.33 -0.39 468.35 -0.06Q467.37 0.28 466.14 0.28Q464.05 0.28 462.43 -0.69Q460.82 -1.65 459.91 -3.37Q459.00 -5.09 459.00 -7.36Q459.00 -9.65 459.92 -11.39Q460.84 -13.13 462.46 -14.12Q464.08 -15.11 466.14 -15.11ZM475.51 0.00Q475.06 0.00 475.06 -0.44V-20.35Q475.06 -20.76 475.42 -20.76H477.61Q477.95 -20.76 477.95 -20.39V-13.01Q477.95 -12.86 478.02 -12.82Q478.09 -12.79 478.23 -12.91Q479.19 -13.68 479.99 -14.16Q480.79 -14.65 481.58 -14.88Q482.37 -15.11 483.26 -15.11Q485.43 -15.11 486.58 -13.94Q487.73 -12.78 487.73 -10.79V-0.51Q487.73 0.00 487.23 0.00H485.17Q484.96 0.00 484.86 -0.10Q484.76 -0.21 484.76 -0.44V-10.25Q484.76 -11.48 484.12 -12.17Q483.48 -12.86 482.14 -12.86Q481.39 -12.86 480.74 -12.62Q480.09 -12.39 479.45 -11.93Q478.80 -11.47 478.03 -10.77V-0.48Q478.03 0.00 477.50 0.00H475.51ZM494.48 -0.53Q494.48 -0.23 494.36 -0.12Q494.23 0.00 493.90 0.00H491.99Q491.49 0.00 491.49 -0.45L491.55 -20.33Q491.55 -20.76 491.92 -20.76H494.13Q494.48 -20.76 494.48 -20.35ZM501.41 -0.53Q501.41 -0.23 501.28 -0.12Q501.16 0.00 500.83 0.00H498.93Q498.64 0.00 498.54 -0.10Q498.44 -0.20 498.44 -0.45V-14.40Q498.44 -14.83 498.81 -14.83H501.05Q501.41 -14.83 501.41 -14.43ZM501.49 -17.81Q501.49 -17.21 500.91 -17.21H498.84Q498.55 -17.21 498.46 -17.35Q498.36 -17.49 498.36 -17.74V-20.28Q498.36 -20.76 498.78 -20.76H501.09Q501.49 -20.76 501.49 -20.31ZM514.33 -11.37Q513.78 -12.14 512.84 -12.64Q511.90 -13.15 510.56 -13.15Q509.21 -13.15 508.30 -12.58Q507.39 -12.02 507.39 -11.03Q507.39 -10.54 507.79 -10.07Q508.18 -9.61 509.45 -9.24L512.89 -8.26Q514.93 -7.73 515.84 -6.66Q516.74 -5.59 516.74 -4.21Q516.74 -2.84 515.93 -1.83Q515.13 -0.83 513.71 -0.27Q512.30 0.28 510.50 0.28Q508.19 0.28 506.51 -0.60Q504.82 -1.48 504.12 -2.80Q504.05 -2.96 504.05 -3.09Q504.05 -3.22 504.18 -3.30L505.54 -4.04Q505.73 -4.14 505.85 -4.12Q505.97 -4.10 506.05 -4.00Q506.48 -3.36 507.08 -2.85Q507.67 -2.34 508.51 -2.05Q509.36 -1.75 510.51 -1.76Q511.49 -1.78 512.29 -2.03Q513.08 -2.28 513.54 -2.76Q514.00 -3.24 514.00 -3.89Q514.00 -4.56 513.45 -5.05Q512.90 -5.54 511.53 -5.91L508.66 -6.64Q506.55 -7.18 505.63 -8.16Q504.71 -9.14 504.69 -10.53Q504.69 -11.89 505.42 -12.92Q506.15 -13.95 507.49 -14.53Q508.83 -15.11 510.60 -15.11Q512.57 -15.11 514.06 -14.37Q515.54 -13.64 516.27 -12.49Q516.36 -12.36 516.39 -12.23Q516.41 -12.10 516.25 -12.01L514.81 -11.26Q514.68 -11.19 514.56 -11.22Q514.43 -11.25 514.33 -11.37ZM524.07 -12.70Q523.81 -12.70 523.81 -12.43V-4.23Q523.81 -3.03 524.26 -2.59Q524.71 -2.16 525.63 -2.16H527.43Q527.59 -2.16 527.68 -2.06Q527.77 -1.97 527.77 -1.81L527.76 -0.61Q527.76 -0.25 527.32 -0.15Q526.97 -0.10 526.44 -0.06Q525.91 -0.03 525.39 -0.01Q524.86 0.00 524.48 0.00Q522.67 0.00 521.75 -0.85Q520.84 -1.70 520.84 -3.49V-12.37Q520.84 -12.70 520.55 -12.70H518.47Q518.10 -12.70 518.10 -13.05V-14.51Q518.10 -14.83 518.45 -14.83H520.67Q520.90 -14.83 520.91 -15.08L521.24 -19.47Q521.27 -19.87 521.58 -19.87H523.51Q523.88 -19.87 523.88 -19.43V-15.08Q523.88 -14.84 524.12 -14.84H527.47Q527.82 -14.84 527.82 -14.52V-13.05Q527.82 -12.70 527.43 -12.70ZM544.94 -1.67Q543.96 -0.74 542.78 -0.23Q541.61 0.28 540.15 0.28Q537.98 0.28 536.74 -0.85Q535.50 -1.97 535.50 -3.79Q535.50 -5.31 536.39 -6.41Q537.27 -7.51 538.97 -8.14Q540.68 -8.78 543.11 -8.89L544.91 -9.04Q545.09 -9.06 545.23 -9.15Q545.37 -9.23 545.37 -9.45V-10.16Q545.37 -11.53 544.53 -12.32Q543.70 -13.11 542.24 -13.11Q541.14 -13.11 540.21 -12.62Q539.28 -12.12 538.58 -11.06Q538.48 -10.90 538.40 -10.85Q538.31 -10.81 538.10 -10.86L536.19 -11.41Q536.08 -11.47 536.03 -11.56Q535.98 -11.66 536.11 -11.94Q536.90 -13.46 538.49 -14.28Q540.08 -15.11 542.37 -15.11Q544.38 -15.11 545.67 -14.53Q546.97 -13.95 547.59 -12.88Q548.22 -11.81 548.22 -10.36V-0.48Q548.22 -0.20 548.12 -0.10Q548.03 0.00 547.79 0.00H545.91Q545.70 0.00 545.59 -0.15Q545.49 -0.31 545.46 -0.55L545.42 -1.64Q545.35 -2.06 544.94 -1.67ZM545.37 -6.96Q545.37 -7.43 544.96 -7.40L543.46 -7.28Q542.35 -7.21 541.42 -6.98Q540.50 -6.75 539.84 -6.36Q539.17 -5.97 538.80 -5.42Q538.43 -4.87 538.43 -4.15Q538.43 -3.05 539.21 -2.43Q539.98 -1.80 541.29 -1.80Q542.13 -1.80 542.87 -2.09Q543.61 -2.38 544.17 -2.82Q544.73 -3.29 545.05 -3.80Q545.37 -4.30 545.37 -4.78V-6.96ZM552.47 0.00Q552.03 0.00 552.03 -0.44V-14.42Q552.03 -14.83 552.38 -14.83H554.58Q554.92 -14.83 554.92 -14.47V-12.93Q554.92 -12.78 554.99 -12.74Q555.07 -12.70 555.20 -12.83Q556.07 -13.54 556.85 -14.05Q557.63 -14.57 558.45 -14.84Q559.28 -15.11 560.22 -15.11Q562.35 -15.11 563.52 -13.93Q564.70 -12.75 564.70 -10.82V-0.51Q564.70 0.00 564.21 0.00H562.15Q561.93 0.00 561.83 -0.10Q561.73 -0.21 561.73 -0.44V-10.25Q561.73 -11.48 561.09 -12.17Q560.45 -12.86 559.10 -12.86Q558.35 -12.86 557.70 -12.62Q557.05 -12.39 556.41 -11.93Q555.76 -11.47 554.99 -10.77V-0.48Q554.99 0.00 554.46 0.00H552.47ZM578.94 0.00Q578.74 0.00 578.61 -0.11Q578.48 -0.21 578.48 -0.45V-1.50Q578.48 -1.72 578.38 -1.74Q578.27 -1.77 578.11 -1.62Q577.76 -1.28 577.20 -0.83Q576.63 -0.38 575.80 -0.05Q574.96 0.28 573.82 0.28Q572.08 0.28 570.70 -0.56Q569.32 -1.39 568.52 -3.07Q567.71 -4.74 567.71 -7.23Q567.71 -9.59 568.54 -11.36Q569.38 -13.13 570.84 -14.12Q572.29 -15.11 574.13 -15.11Q575.43 -15.11 576.33 -14.69Q577.24 -14.26 577.98 -13.62Q578.22 -13.44 578.32 -13.48Q578.43 -13.53 578.43 -13.83V-20.35Q578.43 -20.76 578.78 -20.76H581.03Q581.38 -20.76 581.38 -20.35V-0.49Q581.38 -0.22 581.28 -0.11Q581.17 0.00 580.87 0.00H578.94ZM578.41 -11.37Q577.62 -12.18 576.81 -12.61Q576.00 -13.05 574.98 -13.05Q573.76 -13.05 572.79 -12.42Q571.82 -11.78 571.28 -10.50Q570.73 -9.22 570.73 -7.30Q570.73 -5.35 571.29 -4.11Q571.84 -2.87 572.78 -2.30Q573.72 -1.73 574.85 -1.73Q575.87 -1.73 576.67 -2.21Q577.47 -2.68 577.94 -3.40Q578.41 -4.11 578.41 -4.83V-11.37ZM595.90 -12.70Q595.63 -12.70 595.63 -12.43V-4.23Q595.63 -3.03 596.09 -2.59Q596.54 -2.16 597.46 -2.16H599.25Q599.41 -2.16 599.50 -2.06Q599.59 -1.97 599.59 -1.81L599.58 -0.61Q599.58 -0.25 599.15 -0.15Q598.80 -0.10 598.26 -0.06Q597.73 -0.03 597.21 -0.01Q596.69 0.00 596.31 0.00Q594.49 0.00 593.58 -0.85Q592.67 -1.70 592.67 -3.49V-12.37Q592.67 -12.70 592.38 -12.70H590.30Q589.92 -12.70 589.92 -13.05V-14.51Q589.92 -14.83 590.27 -14.83H592.50Q592.72 -14.83 592.74 -15.08L593.07 -19.47Q593.09 -19.87 593.41 -19.87H595.33Q595.70 -19.87 595.70 -19.43V-15.08Q595.70 -14.84 595.94 -14.84H599.29Q599.64 -14.84 599.64 -14.52V-13.05Q599.64 -12.70 599.26 -12.70ZM602.92 0.00Q602.68 0.00 602.58 -0.11Q602.47 -0.22 602.47 -0.44V-14.42Q602.47 -14.83 602.82 -14.83H604.97Q605.31 -14.83 605.31 -14.47V-12.70Q605.31 -12.54 605.41 -12.51Q605.51 -12.47 605.64 -12.62Q606.31 -13.45 607.03 -14.00Q607.75 -14.55 608.48 -14.83Q609.21 -15.11 609.92 -15.11Q610.93 -15.11 610.93 -14.71V-12.53Q610.93 -12.21 610.61 -12.27Q610.28 -12.33 609.89 -12.37Q609.50 -12.41 609.13 -12.41Q608.55 -12.41 607.90 -12.16Q607.25 -11.90 606.70 -11.47Q606.14 -11.03 605.79 -10.50Q605.44 -9.97 605.44 -9.40V-0.48Q605.44 0.00 604.91 0.00H602.92ZM621.69 -1.67Q620.71 -0.74 619.53 -0.23Q618.36 0.28 616.89 0.28Q614.73 0.28 613.49 -0.85Q612.25 -1.97 612.25 -3.79Q612.25 -5.31 613.14 -6.41Q614.02 -7.51 615.72 -8.14Q617.42 -8.78 619.86 -8.89L621.66 -9.04Q621.84 -9.06 621.98 -9.15Q622.12 -9.23 622.12 -9.45V-10.16Q622.12 -11.53 621.28 -12.32Q620.45 -13.11 618.99 -13.11Q617.89 -13.11 616.96 -12.62Q616.03 -12.12 615.32 -11.06Q615.23 -10.90 615.14 -10.85Q615.06 -10.81 614.85 -10.86L612.94 -11.41Q612.83 -11.47 612.78 -11.56Q612.73 -11.66 612.86 -11.94Q613.65 -13.46 615.24 -14.28Q616.82 -15.11 619.12 -15.11Q621.13 -15.11 622.42 -14.53Q623.71 -13.95 624.34 -12.88Q624.97 -11.81 624.97 -10.36V-0.48Q624.97 -0.20 624.87 -0.10Q624.78 0.00 624.54 0.00H622.66Q622.44 0.00 622.34 -0.15Q622.23 -0.31 622.21 -0.55L622.17 -1.64Q622.10 -2.06 621.69 -1.67ZM622.12 -6.96Q622.12 -7.43 621.71 -7.40L620.20 -7.28Q619.10 -7.21 618.17 -6.98Q617.25 -6.75 616.58 -6.36Q615.92 -5.97 615.55 -5.42Q615.18 -4.87 615.18 -4.15Q615.18 -3.05 615.96 -2.43Q616.73 -1.80 618.04 -1.80Q618.88 -1.80 619.62 -2.09Q620.36 -2.38 620.91 -2.82Q621.48 -3.29 621.80 -3.80Q622.12 -4.30 622.12 -4.78V-6.96ZM631.74 -0.53Q631.74 -0.23 631.62 -0.12Q631.49 0.00 631.16 0.00H629.26Q628.97 0.00 628.87 -0.10Q628.77 -0.20 628.77 -0.45V-14.40Q628.77 -14.83 629.14 -14.83H631.38Q631.74 -14.83 631.74 -14.43ZM631.82 -17.81Q631.82 -17.21 631.24 -17.21H629.17Q628.89 -17.21 628.79 -17.35Q628.69 -17.49 628.69 -17.74V-20.28Q628.69 -20.76 629.11 -20.76H631.42Q631.82 -20.76 631.82 -20.31ZM636.13 0.00Q635.69 0.00 635.69 -0.44V-14.42Q635.69 -14.83 636.04 -14.83H638.24Q638.58 -14.83 638.58 -14.47V-12.93Q638.58 -12.78 638.65 -12.74Q638.73 -12.70 638.86 -12.83Q639.73 -13.54 640.51 -14.05Q641.29 -14.57 642.11 -14.84Q642.94 -15.11 643.88 -15.11Q646.01 -15.11 647.18 -13.93Q648.36 -12.75 648.36 -10.82V-0.51Q648.36 0.00 647.87 0.00H645.81Q645.59 0.00 645.49 -0.10Q645.39 -0.21 645.39 -0.44V-10.25Q645.39 -11.48 644.75 -12.17Q644.11 -12.86 642.76 -12.86Q642.01 -12.86 641.36 -12.62Q640.71 -12.39 640.07 -11.93Q639.42 -11.47 638.65 -10.77V-0.48Q638.65 0.00 638.12 0.00H636.13ZM655.10 -0.53Q655.10 -0.23 654.98 -0.12Q654.85 0.00 654.53 0.00H652.62Q652.33 0.00 652.23 -0.10Q652.14 -0.20 652.14 -0.45V-14.40Q652.14 -14.83 652.50 -14.83H654.75Q655.10 -14.83 655.10 -14.43ZM655.19 -17.81Q655.19 -17.21 654.61 -17.21H652.54Q652.25 -17.21 652.15 -17.35Q652.06 -17.49 652.06 -17.74V-20.28Q652.06 -20.76 652.47 -20.76H654.78Q655.19 -20.76 655.19 -20.31ZM659.50 0.00Q659.05 0.00 659.05 -0.44V-14.42Q659.05 -14.83 659.40 -14.83H661.60Q661.94 -14.83 661.94 -14.47V-12.93Q661.94 -12.78 662.02 -12.74Q662.09 -12.70 662.22 -12.83Q663.09 -13.54 663.87 -14.05Q664.65 -14.57 665.48 -14.84Q666.30 -15.11 667.25 -15.11Q669.37 -15.11 670.55 -13.93Q671.72 -12.75 671.72 -10.82V-0.51Q671.72 0.00 671.23 0.00H669.17Q668.95 0.00 668.86 -0.10Q668.76 -0.21 668.76 -0.44V-10.25Q668.76 -11.48 668.11 -12.17Q667.47 -12.86 666.12 -12.86Q665.37 -12.86 664.73 -12.62Q664.08 -12.39 663.43 -11.93Q662.79 -11.47 662.01 -10.77V-0.48Q662.01 0.00 661.49 0.00H659.50ZM689.39 -15.20Q689.66 -15.20 689.80 -15.09Q689.93 -14.97 689.93 -14.70V-13.44Q689.93 -13.13 689.80 -12.99Q689.66 -12.85 689.36 -12.88Q688.93 -12.90 688.59 -12.87Q688.24 -12.85 687.94 -12.73Q687.24 -12.52 687.38 -12.09Q687.49 -11.79 687.64 -11.40Q687.79 -11.00 687.79 -10.38Q687.79 -9.14 687.11 -8.11Q686.43 -7.07 685.03 -6.46Q683.64 -5.85 681.50 -5.85Q680.18 -5.85 679.41 -5.69Q678.64 -5.54 678.32 -5.28Q677.99 -5.02 677.99 -4.73Q677.99 -4.31 678.54 -4.13Q679.09 -3.95 680.29 -3.88L684.02 -3.66Q686.62 -3.51 687.82 -2.46Q689.02 -1.41 689.02 0.28Q689.02 2.39 687.11 3.64Q685.20 4.90 681.60 4.90Q677.89 4.90 675.98 3.91Q674.06 2.93 674.06 1.06Q674.06 0.07 674.76 -0.65Q675.46 -1.38 676.69 -1.93Q677.04 -2.08 676.69 -2.24Q676.06 -2.54 675.69 -2.97Q675.31 -3.40 675.31 -4.02Q675.31 -4.48 675.60 -4.89Q675.89 -5.30 676.42 -5.65Q676.94 -6.00 677.67 -6.26Q677.82 -6.32 677.84 -6.41Q677.86 -6.50 677.68 -6.60Q676.44 -7.22 675.81 -8.15Q675.19 -9.08 675.19 -10.37Q675.19 -12.52 676.88 -13.78Q678.58 -15.05 681.75 -15.05Q683.23 -15.05 684.28 -14.72Q685.33 -14.39 686.03 -13.79Q686.21 -13.66 686.38 -13.66Q686.55 -13.67 686.69 -13.81Q687.01 -14.16 687.46 -14.48Q687.91 -14.79 688.42 -14.99Q688.93 -15.20 689.39 -15.20ZM681.49 -7.52Q683.31 -7.52 684.17 -8.29Q685.04 -9.07 685.04 -10.37Q685.04 -11.75 684.17 -12.55Q683.29 -13.36 681.49 -13.36Q679.78 -13.36 678.84 -12.55Q677.90 -11.75 677.90 -10.37Q677.90 -9.05 678.83 -8.29Q679.77 -7.52 681.49 -7.52ZM679.15 -1.51Q678.64 -1.53 678.05 -1.26Q677.46 -0.99 677.04 -0.48Q676.61 0.02 676.61 0.69Q676.61 1.49 677.17 2.06Q677.74 2.64 678.90 2.94Q680.06 3.24 681.86 3.24Q684.05 3.24 685.19 2.61Q686.33 1.97 686.33 0.72Q686.33 -0.12 685.73 -0.65Q685.12 -1.18 683.72 -1.26ZM701.49 -0.53Q701.49 -0.23 701.37 -0.12Q701.24 0.00 700.92 0.00H699.01Q698.72 0.00 698.62 -0.10Q698.53 -0.20 698.53 -0.45V-14.40Q698.53 -14.83 698.90 -14.83H701.14Q701.49 -14.83 701.49 -14.43ZM701.58 -17.81Q701.58 -17.21 701.00 -17.21H698.93Q698.64 -17.21 698.54 -17.35Q698.45 -17.49 698.45 -17.74V-20.28Q698.45 -20.76 698.86 -20.76H701.17Q701.58 -20.76 701.58 -20.31ZM705.89 0.00Q705.44 0.00 705.44 -0.44V-14.42Q705.44 -14.83 705.79 -14.83H707.99Q708.33 -14.83 708.33 -14.47V-12.93Q708.33 -12.78 708.41 -12.74Q708.48 -12.70 708.61 -12.83Q709.48 -13.54 710.26 -14.05Q711.04 -14.57 711.87 -14.84Q712.69 -15.11 713.64 -15.11Q715.76 -15.11 716.94 -13.93Q718.11 -12.75 718.11 -10.82V-0.51Q718.11 0.00 717.62 0.00H715.56Q715.35 0.00 715.25 -0.10Q715.15 -0.21 715.15 -0.44V-10.25Q715.15 -11.48 714.50 -12.17Q713.86 -12.86 712.51 -12.86Q711.77 -12.86 711.12 -12.62Q710.47 -12.39 709.82 -11.93Q709.18 -11.47 708.41 -10.77V-0.48Q708.41 0.00 707.88 0.00H705.89ZM734.22 0.28Q732.07 0.28 730.45 -0.69Q728.82 -1.66 727.92 -3.38Q727.02 -5.10 727.02 -7.33Q727.02 -9.65 727.95 -11.40Q728.87 -13.15 730.51 -14.13Q732.14 -15.11 734.25 -15.11Q736.42 -15.11 738.03 -14.12Q739.64 -13.13 740.54 -11.38Q741.45 -9.63 741.45 -7.36Q741.45 -5.12 740.54 -3.40Q739.62 -1.68 738.00 -0.70Q736.38 0.28 734.22 0.28ZM734.26 -1.82Q735.60 -1.82 736.52 -2.49Q737.45 -3.15 737.94 -4.40Q738.42 -5.65 738.42 -7.41Q738.42 -9.19 737.93 -10.45Q737.43 -11.71 736.50 -12.38Q735.56 -13.05 734.25 -13.05Q732.95 -13.05 732.00 -12.38Q731.05 -11.71 730.54 -10.45Q730.04 -9.19 730.04 -7.41Q730.04 -5.66 730.54 -4.40Q731.05 -3.15 732.00 -2.49Q732.95 -1.82 734.26 -1.82ZM745.03 0.00Q744.58 0.00 744.58 -0.44V-14.42Q744.58 -14.83 744.93 -14.83H747.14Q747.48 -14.83 747.48 -14.47V-12.93Q747.48 -12.78 747.55 -12.74Q747.62 -12.70 747.76 -12.83Q748.63 -13.54 749.41 -14.05Q750.19 -14.57 751.01 -14.84Q751.83 -15.11 752.78 -15.11Q754.91 -15.11 756.08 -13.93Q757.26 -12.75 757.26 -10.82V-0.51Q757.26 0.00 756.76 0.00H754.71Q754.49 0.00 754.39 -0.10Q754.29 -0.21 754.29 -0.44V-10.25Q754.29 -11.48 753.65 -12.17Q753.00 -12.86 751.66 -12.86Q750.91 -12.86 750.26 -12.62Q749.61 -12.39 748.97 -11.93Q748.32 -11.47 747.55 -10.77V-0.48Q747.55 0.00 747.02 0.00H745.03ZM763.30 -6.39Q763.30 -5.13 763.90 -4.10Q764.50 -3.07 765.52 -2.47Q766.53 -1.87 767.79 -1.87Q769.08 -1.87 770.09 -2.40Q771.10 -2.93 771.92 -4.04Q772.02 -4.17 772.10 -4.19Q772.18 -4.20 772.35 -4.12L773.78 -3.45Q774.08 -3.30 773.84 -3.01Q773.05 -1.84 772.11 -1.11Q771.18 -0.39 770.04 -0.05Q768.90 0.28 767.48 0.28Q765.37 0.28 763.74 -0.67Q762.10 -1.62 761.17 -3.33Q760.23 -5.03 760.23 -7.25Q760.23 -9.67 761.19 -11.43Q762.15 -13.19 763.79 -14.15Q765.43 -15.11 767.43 -15.11Q769.51 -15.11 771.05 -14.20Q772.60 -13.29 773.47 -11.58Q774.34 -9.87 774.34 -7.44Q774.34 -7.19 774.29 -7.01Q774.25 -6.83 773.91 -6.82H763.57Q763.44 -6.82 763.37 -6.70Q763.30 -6.58 763.30 -6.39ZM770.93 -8.60Q771.23 -8.60 771.32 -8.68Q771.41 -8.76 771.41 -8.99Q771.41 -10.04 770.95 -10.99Q770.49 -11.94 769.63 -12.54Q768.76 -13.13 767.52 -13.13Q766.20 -13.13 765.26 -12.50Q764.31 -11.86 763.83 -10.83Q763.35 -9.79 763.35 -8.61ZM785.73 -14.83Q786.20 -14.83 786.20 -14.37V-13.29Q786.20 -13.09 786.30 -13.07Q786.41 -13.06 786.57 -13.20Q786.93 -13.56 787.46 -14.00Q788.00 -14.44 788.82 -14.77Q789.65 -15.11 790.86 -15.11Q792.56 -15.11 793.91 -14.28Q795.27 -13.46 796.07 -11.80Q796.87 -10.15 796.87 -7.60Q796.87 -5.04 796.07 -3.28Q795.27 -1.53 793.86 -0.62Q792.45 0.28 790.58 0.28Q789.35 0.28 788.39 -0.10Q787.42 -0.49 786.69 -1.13Q786.42 -1.37 786.32 -1.33Q786.22 -1.30 786.22 -0.96V4.22Q786.22 4.62 785.86 4.62H783.60Q783.25 4.62 783.25 4.21V-14.33Q783.25 -14.60 783.36 -14.71Q783.46 -14.83 783.76 -14.83H785.73ZM786.22 -3.45Q786.98 -2.67 787.80 -2.21Q788.62 -1.74 789.66 -1.74Q790.90 -1.74 791.84 -2.38Q792.78 -3.02 793.31 -4.32Q793.85 -5.62 793.85 -7.61Q793.85 -9.59 793.30 -10.79Q792.75 -11.99 791.83 -12.54Q790.91 -13.09 789.79 -13.09Q788.75 -13.09 787.94 -12.64Q787.13 -12.19 786.67 -11.52Q786.22 -10.85 786.22 -10.17V-3.45ZM803.04 -0.53Q803.04 -0.23 802.92 -0.12Q802.79 0.00 802.47 0.00H800.55Q800.06 0.00 800.06 -0.45L800.11 -20.33Q800.11 -20.76 800.48 -20.76H802.69Q803.04 -20.76 803.04 -20.35ZM815.37 -1.67Q814.38 -0.74 813.21 -0.23Q812.03 0.28 810.57 0.28Q808.41 0.28 807.17 -0.85Q805.93 -1.97 805.93 -3.79Q805.93 -5.31 806.82 -6.41Q807.70 -7.51 809.40 -8.14Q811.10 -8.78 813.53 -8.89L815.34 -9.04Q815.52 -9.06 815.66 -9.15Q815.79 -9.23 815.79 -9.45V-10.16Q815.79 -11.53 814.96 -12.32Q814.13 -13.11 812.66 -13.11Q811.57 -13.11 810.64 -12.62Q809.71 -12.12 809.00 -11.06Q808.91 -10.90 808.82 -10.85Q808.74 -10.81 808.52 -10.86L806.62 -11.41Q806.50 -11.47 806.46 -11.56Q806.41 -11.66 806.54 -11.94Q807.33 -13.46 808.92 -14.28Q810.50 -15.11 812.80 -15.11Q814.81 -15.11 816.10 -14.53Q817.39 -13.95 818.02 -12.88Q818.64 -11.81 818.64 -10.36V-0.48Q818.64 -0.20 818.55 -0.10Q818.46 0.00 818.21 0.00H816.34Q816.12 0.00 816.02 -0.15Q815.91 -0.31 815.89 -0.55L815.84 -1.64Q815.78 -2.06 815.37 -1.67ZM815.79 -6.96Q815.79 -7.43 815.39 -7.40L813.88 -7.28Q812.77 -7.21 811.85 -6.98Q810.92 -6.75 810.26 -6.36Q809.60 -5.97 809.23 -5.42Q808.86 -4.87 808.86 -4.15Q808.86 -3.05 809.63 -2.43Q810.41 -1.80 811.72 -1.80Q812.56 -1.80 813.30 -2.09Q814.04 -2.38 814.59 -2.82Q815.15 -3.29 815.47 -3.80Q815.79 -4.30 815.79 -4.78V-6.96ZM828.79 -15.11Q830.36 -15.11 831.52 -14.59Q832.68 -14.07 833.48 -13.23Q834.29 -12.38 834.76 -11.39Q834.92 -10.98 834.55 -10.92L832.57 -10.58Q832.33 -10.52 832.20 -10.81Q831.73 -11.52 831.25 -12.00Q830.77 -12.49 830.22 -12.76Q829.66 -13.03 828.93 -13.03Q827.65 -13.03 826.68 -12.37Q825.72 -11.71 825.19 -10.46Q824.67 -9.21 824.67 -7.41Q824.67 -5.61 825.20 -4.35Q825.74 -3.08 826.73 -2.43Q827.71 -1.78 829.04 -1.78Q830.35 -1.78 831.25 -2.44Q832.15 -3.10 832.91 -4.33Q832.98 -4.46 833.06 -4.49Q833.14 -4.51 833.30 -4.46L834.77 -4.00Q835.01 -3.92 834.90 -3.57Q834.56 -2.87 834.02 -2.18Q833.48 -1.49 832.73 -0.94Q831.97 -0.39 831.00 -0.06Q830.02 0.28 828.79 0.28Q826.70 0.28 825.08 -0.69Q823.46 -1.65 822.55 -3.37Q821.65 -5.09 821.65 -7.36Q821.65 -9.65 822.57 -11.39Q823.49 -13.13 825.11 -14.12Q826.72 -15.11 828.79 -15.11ZM839.79 -6.39Q839.79 -5.13 840.39 -4.10Q840.99 -3.07 842.01 -2.47Q843.03 -1.87 844.29 -1.87Q845.57 -1.87 846.59 -2.40Q847.60 -2.93 848.42 -4.04Q848.52 -4.17 848.60 -4.19Q848.68 -4.20 848.85 -4.12L850.27 -3.45Q850.58 -3.30 850.34 -3.01Q849.54 -1.84 848.61 -1.11Q847.68 -0.39 846.54 -0.05Q845.39 0.28 843.98 0.28Q841.87 0.28 840.23 -0.67Q838.60 -1.62 837.66 -3.33Q836.73 -5.03 836.73 -7.25Q836.73 -9.67 837.69 -11.43Q838.65 -13.19 840.29 -14.15Q841.92 -15.11 843.93 -15.11Q846.01 -15.11 847.55 -14.20Q849.09 -13.29 849.96 -11.58Q850.83 -9.87 850.83 -7.44Q850.83 -7.19 850.79 -7.01Q850.74 -6.83 850.41 -6.82H840.07Q839.94 -6.82 839.86 -6.70Q839.79 -6.58 839.79 -6.39ZM847.43 -8.60Q847.72 -8.60 847.81 -8.68Q847.90 -8.76 847.90 -8.99Q847.90 -10.04 847.44 -10.99Q846.99 -11.94 846.12 -12.54Q845.26 -13.13 844.02 -13.13Q842.70 -13.13 841.76 -12.50Q840.81 -11.86 840.33 -10.83Q839.85 -9.79 839.85 -8.61ZM856.65 -0.52Q856.65 0.00 856.05 0.00H853.68Q853.20 0.00 853.20 -0.45V-3.22Q853.20 -3.62 853.54 -3.62H856.32Q856.65 -3.62 856.65 -3.25Z" fill="#4A6A84" transform="translate(443.9 288.3)"/><rect x="443.9408284023669" y="312.3" width="112.0" height="3" fill="#7FB0D4"/><path d="M2.15 0.00Q1.85 0.00 1.74 -0.12Q1.63 -0.24 1.63 -0.51V-18.84Q1.63 -19.29 2.02 -19.29H4.66Q5.01 -19.29 5.01 -18.86V-12.69Q5.01 -12.40 5.14 -12.38Q5.26 -12.36 5.44 -12.52Q5.80 -12.87 6.34 -13.21Q6.87 -13.55 7.60 -13.80Q8.33 -14.04 9.25 -14.04Q11.08 -14.04 12.29 -13.14Q13.51 -12.23 14.12 -10.64Q14.74 -9.05 14.74 -6.97Q14.74 -3.66 13.20 -1.70Q11.66 0.26 8.82 0.26Q7.79 0.26 6.98 -0.06Q6.17 -0.39 5.60 -0.88Q5.02 -1.37 4.66 -1.83Q4.56 -1.96 4.47 -1.94Q4.39 -1.92 4.36 -1.75L4.10 -0.48Q4.00 0.00 3.55 0.00ZM5.01 -4.72Q5.01 -3.90 5.43 -3.26Q5.85 -2.61 6.52 -2.25Q7.20 -1.88 7.99 -1.88Q8.96 -1.88 9.70 -2.39Q10.45 -2.90 10.87 -4.02Q11.29 -5.13 11.29 -6.91Q11.29 -9.40 10.48 -10.61Q9.68 -11.82 8.12 -11.82Q7.16 -11.82 6.37 -11.38Q5.58 -10.94 5.01 -10.25ZM17.80 4.29Q17.02 4.29 16.64 4.22Q16.25 4.15 16.25 3.85V2.19Q16.25 2.02 16.40 1.91Q16.55 1.79 16.99 1.79H18.71Q19.24 1.79 19.66 1.51Q20.09 1.23 20.36 0.82Q20.63 0.40 20.73 -0.06Q20.83 -0.52 20.68 -0.87L15.69 -13.22Q15.61 -13.44 15.71 -13.61Q15.80 -13.78 16.06 -13.78H18.77Q18.96 -13.78 19.09 -13.68Q19.23 -13.57 19.29 -13.40L22.51 -4.84Q22.60 -4.60 22.73 -4.60Q22.86 -4.60 22.96 -4.88L26.15 -13.41Q26.23 -13.57 26.35 -13.68Q26.47 -13.78 26.65 -13.78H28.54Q28.77 -13.78 28.86 -13.61Q28.96 -13.45 28.86 -13.25L23.41 0.42Q22.91 1.63 22.38 2.38Q21.85 3.14 21.20 3.55Q20.54 3.97 19.72 4.13Q18.89 4.29 17.80 4.29ZM47.83 -15.07Q47.23 -15.76 46.31 -16.29Q45.39 -16.81 43.81 -16.81Q42.06 -16.81 41.15 -16.12Q40.24 -15.44 40.24 -14.32Q40.24 -13.97 40.41 -13.55Q40.58 -13.13 41.09 -12.72Q41.59 -12.32 42.56 -12.01L46.56 -10.81Q48.95 -10.11 50.01 -8.72Q51.07 -7.34 51.07 -5.49Q51.07 -3.72 50.16 -2.42Q49.25 -1.13 47.59 -0.43Q45.92 0.26 43.61 0.26Q41.92 0.26 40.44 -0.13Q38.97 -0.53 37.84 -1.28Q36.71 -2.02 36.02 -3.07Q35.89 -3.29 35.92 -3.45Q35.95 -3.61 36.18 -3.78L37.81 -4.91Q38.10 -5.10 38.28 -5.08Q38.46 -5.05 38.59 -4.88Q39.23 -4.06 39.87 -3.52Q40.51 -2.98 41.34 -2.72Q42.18 -2.47 43.36 -2.47Q45.18 -2.47 46.28 -3.08Q47.38 -3.68 47.38 -5.00Q47.38 -5.52 47.16 -5.95Q46.94 -6.37 46.42 -6.73Q45.91 -7.09 44.96 -7.41L41.02 -8.61Q39.53 -9.07 38.54 -9.87Q37.56 -10.66 37.07 -11.70Q36.58 -12.73 36.58 -13.86Q36.58 -15.52 37.47 -16.81Q38.35 -18.09 39.96 -18.82Q41.57 -19.55 43.73 -19.55Q45.14 -19.55 46.37 -19.22Q47.60 -18.90 48.60 -18.30Q49.61 -17.70 50.26 -16.88Q50.37 -16.74 50.42 -16.59Q50.46 -16.45 50.26 -16.28L48.42 -14.90Q48.27 -14.79 48.16 -14.83Q48.05 -14.87 47.83 -15.07ZM57.22 -0.56Q57.22 -0.25 57.08 -0.12Q56.94 0.00 56.60 0.00H54.35Q54.05 0.00 53.95 -0.11Q53.84 -0.22 53.84 -0.48V-13.33Q53.84 -13.78 54.22 -13.78H56.86Q57.22 -13.78 57.22 -13.37ZM57.28 -16.33Q57.28 -15.72 56.66 -15.72H54.29Q53.99 -15.72 53.89 -15.86Q53.79 -16.00 53.79 -16.26V-18.81Q53.79 -19.29 54.20 -19.29H56.88Q57.28 -19.29 57.28 -18.84ZM60.98 0.00Q60.50 0.00 60.50 -0.47V-13.34Q60.50 -13.78 60.87 -13.78H63.45Q63.80 -13.78 63.80 -13.40V-12.03Q63.80 -11.89 63.87 -11.85Q63.95 -11.81 64.08 -11.94Q64.81 -12.58 65.50 -13.06Q66.19 -13.53 66.94 -13.79Q67.69 -14.05 68.51 -14.05Q69.96 -14.05 70.90 -13.38Q71.84 -12.70 72.21 -11.67Q72.26 -11.57 72.35 -11.59Q72.45 -11.62 72.55 -11.72Q73.24 -12.41 73.99 -12.93Q74.74 -13.44 75.54 -13.74Q76.35 -14.04 77.18 -14.04Q79.02 -14.04 80.09 -12.94Q81.16 -11.83 81.16 -9.93V-0.55Q81.16 0.00 80.60 0.00H78.22Q77.98 0.00 77.88 -0.11Q77.78 -0.22 77.78 -0.47V-9.42Q77.78 -10.43 77.26 -10.99Q76.75 -11.55 75.73 -11.55Q75.15 -11.55 74.60 -11.32Q74.05 -11.09 73.61 -10.75Q73.17 -10.42 72.82 -10.08Q72.65 -9.89 72.58 -9.73Q72.51 -9.57 72.51 -9.34V-0.55Q72.51 0.00 71.97 0.00H69.58Q69.36 0.00 69.25 -0.11Q69.15 -0.22 69.15 -0.47V-9.42Q69.15 -10.43 68.64 -10.99Q68.13 -11.55 67.10 -11.55Q66.21 -11.55 65.47 -11.11Q64.73 -10.67 63.88 -9.77V-0.53Q63.88 0.00 63.29 0.00H60.98ZM87.14 -13.78Q87.63 -13.78 87.63 -13.30V-12.42Q87.63 -12.24 87.74 -12.23Q87.85 -12.22 87.99 -12.34Q88.37 -12.71 88.88 -13.10Q89.38 -13.48 90.11 -13.76Q90.85 -14.04 91.89 -14.04Q93.44 -14.04 94.67 -13.27Q95.90 -12.51 96.62 -10.96Q97.35 -9.42 97.35 -7.03Q97.35 -4.59 96.61 -2.97Q95.88 -1.35 94.60 -0.54Q93.31 0.26 91.65 0.26Q90.58 0.26 89.70 -0.08Q88.83 -0.41 88.11 -1.05Q87.84 -1.30 87.74 -1.27Q87.64 -1.23 87.64 -0.90V3.88Q87.64 4.29 87.28 4.29H84.63Q84.26 4.29 84.26 3.87V-13.26Q84.26 -13.53 84.37 -13.66Q84.48 -13.78 84.79 -13.78H87.14ZM87.64 -3.39Q88.25 -2.73 88.93 -2.34Q89.61 -1.94 90.49 -1.94Q91.51 -1.94 92.28 -2.48Q93.05 -3.01 93.49 -4.14Q93.92 -5.27 93.92 -7.08Q93.92 -8.83 93.48 -9.87Q93.04 -10.92 92.28 -11.38Q91.53 -11.84 90.58 -11.84Q89.73 -11.84 89.06 -11.48Q88.40 -11.12 88.02 -10.57Q87.64 -10.02 87.64 -9.45V-3.39ZM103.39 -0.56Q103.39 -0.25 103.25 -0.12Q103.11 0.00 102.77 0.00H100.50Q99.98 0.00 99.98 -0.48L100.05 -18.84Q100.05 -19.29 100.43 -19.29H103.02Q103.39 -19.29 103.39 -18.87ZM109.47 -5.83Q109.47 -4.75 109.98 -3.91Q110.48 -3.07 111.34 -2.58Q112.21 -2.10 113.27 -2.10Q114.33 -2.10 115.20 -2.55Q116.06 -3.00 116.85 -3.98Q116.94 -4.09 117.02 -4.11Q117.10 -4.12 117.28 -4.04L118.88 -3.33Q119.21 -3.18 118.95 -2.86Q118.16 -1.72 117.27 -1.03Q116.39 -0.35 115.31 -0.04Q114.23 0.26 112.87 0.26Q110.88 0.26 109.33 -0.62Q107.77 -1.51 106.88 -3.09Q105.98 -4.66 105.98 -6.71Q105.98 -8.96 106.91 -10.60Q107.83 -12.24 109.38 -13.14Q110.94 -14.04 112.81 -14.04Q114.78 -14.04 116.25 -13.18Q117.72 -12.33 118.56 -10.72Q119.40 -9.12 119.40 -6.83Q119.40 -6.57 119.35 -6.41Q119.30 -6.25 118.99 -6.24H109.76Q109.63 -6.24 109.55 -6.13Q109.47 -6.02 109.47 -5.83ZM115.64 -8.15Q115.91 -8.15 116.00 -8.22Q116.08 -8.30 116.08 -8.52Q116.08 -9.33 115.72 -10.11Q115.35 -10.88 114.66 -11.39Q113.96 -11.90 112.93 -11.90Q111.89 -11.90 111.11 -11.39Q110.34 -10.89 109.93 -10.04Q109.53 -9.19 109.53 -8.17ZM128.20 0.00Q127.72 0.00 127.72 -0.52V-18.84Q127.72 -19.29 128.12 -19.29H132.52Q132.77 -19.29 132.89 -19.22Q133.00 -19.16 133.07 -18.94L137.63 -6.67Q137.72 -6.43 137.82 -6.45Q137.93 -6.46 138.00 -6.68L142.45 -18.79Q142.60 -19.29 142.97 -19.29H147.52Q147.89 -19.29 147.89 -18.87V-0.54Q147.89 0.00 147.32 0.00H144.54Q144.26 0.00 144.15 -0.11Q144.04 -0.22 144.04 -0.47V-14.06Q144.04 -14.23 143.97 -14.22Q143.89 -14.20 143.84 -14.05L138.90 -0.39Q138.75 0.00 138.36 0.00H136.52Q136.09 0.00 135.95 -0.38L131.07 -13.88Q131.00 -14.07 130.93 -14.06Q130.86 -14.04 130.86 -13.86V-0.42Q130.86 -0.19 130.78 -0.09Q130.69 0.00 130.43 0.00H128.20ZM157.72 0.26Q155.69 0.26 154.15 -0.64Q152.61 -1.55 151.75 -3.15Q150.89 -4.75 150.89 -6.81Q150.89 -8.97 151.77 -10.60Q152.66 -12.22 154.21 -13.13Q155.76 -14.04 157.74 -14.04Q159.80 -14.04 161.33 -13.12Q162.86 -12.19 163.72 -10.57Q164.58 -8.94 164.58 -6.83Q164.58 -4.76 163.71 -3.16Q162.84 -1.56 161.30 -0.65Q159.76 0.26 157.72 0.26ZM157.75 -2.04Q158.85 -2.04 159.61 -2.61Q160.36 -3.17 160.75 -4.25Q161.14 -5.34 161.14 -6.89Q161.14 -8.48 160.75 -9.57Q160.35 -10.66 159.59 -11.23Q158.83 -11.79 157.74 -11.79Q156.67 -11.79 155.89 -11.23Q155.12 -10.66 154.72 -9.57Q154.32 -8.48 154.32 -6.89Q154.32 -5.34 154.72 -4.25Q155.12 -3.17 155.89 -2.61Q156.67 -2.04 157.75 -2.04ZM167.63 0.00Q167.15 0.00 167.15 -0.47V-13.34Q167.15 -13.78 167.52 -13.78H170.11Q170.47 -13.78 170.47 -13.40V-12.03Q170.47 -11.89 170.54 -11.85Q170.62 -11.81 170.75 -11.94Q171.49 -12.58 172.19 -13.06Q172.90 -13.53 173.66 -13.79Q174.42 -14.04 175.28 -14.04Q177.21 -14.04 178.32 -12.93Q179.42 -11.82 179.42 -10.00V-0.55Q179.42 0.00 178.88 0.00H176.48Q176.24 0.00 176.14 -0.11Q176.04 -0.22 176.04 -0.47V-9.42Q176.04 -10.43 175.50 -10.99Q174.96 -11.55 173.87 -11.55Q173.25 -11.55 172.71 -11.35Q172.17 -11.15 171.65 -10.76Q171.13 -10.37 170.53 -9.77V-0.53Q170.53 0.00 169.95 0.00H167.63ZM185.34 -5.83Q185.34 -4.75 185.85 -3.91Q186.35 -3.07 187.21 -2.58Q188.07 -2.10 189.14 -2.10Q190.20 -2.10 191.06 -2.55Q191.93 -3.00 192.72 -3.98Q192.81 -4.09 192.89 -4.11Q192.97 -4.12 193.15 -4.04L194.74 -3.33Q195.08 -3.18 194.81 -2.86Q194.03 -1.72 193.14 -1.03Q192.25 -0.35 191.17 -0.04Q190.09 0.26 188.74 0.26Q186.75 0.26 185.20 -0.62Q183.64 -1.51 182.75 -3.09Q181.85 -4.66 181.85 -6.71Q181.85 -8.96 182.77 -10.60Q183.69 -12.24 185.25 -13.14Q186.80 -14.04 188.68 -14.04Q190.64 -14.04 192.12 -13.18Q193.59 -12.33 194.43 -10.72Q195.26 -9.12 195.26 -6.83Q195.26 -6.57 195.22 -6.41Q195.17 -6.25 194.85 -6.24H185.63Q185.49 -6.24 185.42 -6.13Q185.34 -6.02 185.34 -5.83ZM191.51 -8.15Q191.78 -8.15 191.86 -8.22Q191.95 -8.30 191.95 -8.52Q191.95 -9.33 191.59 -10.11Q191.22 -10.88 190.52 -11.39Q189.83 -11.90 188.80 -11.90Q187.76 -11.90 186.98 -11.39Q186.21 -10.89 185.80 -10.04Q185.40 -9.19 185.40 -8.17ZM198.27 4.29Q197.48 4.29 197.10 4.22Q196.72 4.15 196.72 3.85V2.19Q196.72 2.02 196.87 1.91Q197.02 1.79 197.46 1.79H199.18Q199.70 1.79 200.13 1.51Q200.55 1.23 200.83 0.82Q201.10 0.40 201.20 -0.06Q201.29 -0.52 201.14 -0.87L196.16 -13.22Q196.07 -13.44 196.17 -13.61Q196.27 -13.78 196.52 -13.78H199.23Q199.42 -13.78 199.56 -13.68Q199.70 -13.57 199.75 -13.40L202.97 -4.84Q203.06 -4.60 203.19 -4.60Q203.32 -4.60 203.43 -4.88L206.62 -13.41Q206.70 -13.57 206.82 -13.68Q206.94 -13.78 207.11 -13.78H209.00Q209.23 -13.78 209.33 -13.61Q209.43 -13.45 209.33 -13.25L203.87 0.42Q203.38 1.63 202.85 2.38Q202.31 3.14 201.66 3.55Q201.01 3.97 200.18 4.13Q199.36 4.29 198.27 4.29ZM216.33 -18.88Q216.33 -19.07 216.43 -19.18Q216.54 -19.29 216.77 -19.29H231.38Q231.61 -19.29 231.72 -19.18Q231.82 -19.07 231.82 -18.88V-16.84Q231.82 -16.48 231.41 -16.48H226.40Q226.11 -16.48 226.11 -16.23V-0.44Q226.11 0.00 225.73 0.00H222.64Q222.27 0.00 222.27 -0.41V-16.18Q222.27 -16.48 221.99 -16.48H216.76Q216.33 -16.48 216.33 -16.84ZM237.67 0.26Q235.64 0.26 234.10 -0.64Q232.56 -1.55 231.70 -3.15Q230.84 -4.75 230.84 -6.81Q230.84 -8.97 231.72 -10.60Q232.61 -12.22 234.16 -13.13Q235.71 -14.04 237.69 -14.04Q239.75 -14.04 241.28 -13.12Q242.81 -12.19 243.67 -10.57Q244.53 -8.94 244.53 -6.83Q244.53 -4.76 243.66 -3.16Q242.79 -1.56 241.25 -0.65Q239.71 0.26 237.67 0.26ZM237.70 -2.04Q238.80 -2.04 239.56 -2.61Q240.31 -3.17 240.70 -4.25Q241.09 -5.34 241.09 -6.89Q241.09 -8.48 240.70 -9.57Q240.30 -10.66 239.54 -11.23Q238.78 -11.79 237.69 -11.79Q236.62 -11.79 235.84 -11.23Q235.07 -10.66 234.67 -9.57Q234.27 -8.48 234.27 -6.89Q234.27 -5.34 234.67 -4.25Q235.07 -3.17 235.84 -2.61Q236.62 -2.04 237.70 -2.04ZM253.24 0.26Q251.21 0.26 249.67 -0.64Q248.13 -1.55 247.27 -3.15Q246.41 -4.75 246.41 -6.81Q246.41 -8.97 247.30 -10.60Q248.19 -12.22 249.73 -13.13Q251.28 -14.04 253.27 -14.04Q255.32 -14.04 256.85 -13.12Q258.38 -12.19 259.24 -10.57Q260.10 -8.94 260.10 -6.83Q260.10 -4.76 259.23 -3.16Q258.37 -1.56 256.83 -0.65Q255.28 0.26 253.24 0.26ZM253.28 -2.04Q254.38 -2.04 255.13 -2.61Q255.89 -3.17 256.28 -4.25Q256.67 -5.34 256.67 -6.89Q256.67 -8.48 256.27 -9.57Q255.88 -10.66 255.12 -11.23Q254.35 -11.79 253.27 -11.79Q252.19 -11.79 251.42 -11.23Q250.64 -10.66 250.24 -9.57Q249.84 -8.48 249.84 -6.89Q249.84 -5.34 250.24 -4.25Q250.64 -3.17 251.42 -2.61Q252.19 -2.04 253.28 -2.04ZM266.07 -0.56Q266.07 -0.25 265.93 -0.12Q265.79 0.00 265.45 0.00H263.18Q262.66 0.00 262.66 -0.48L262.73 -18.84Q262.73 -19.29 263.11 -19.29H265.70Q266.07 -19.29 266.07 -18.87ZM277.77 -10.37Q277.29 -11.02 276.48 -11.47Q275.67 -11.91 274.50 -11.91Q273.39 -11.91 272.64 -11.46Q271.88 -11.01 271.88 -10.22Q271.88 -9.83 272.20 -9.46Q272.52 -9.09 273.57 -8.80L276.66 -7.98Q278.69 -7.48 279.56 -6.43Q280.43 -5.38 280.43 -4.04Q280.43 -2.71 279.66 -1.75Q278.89 -0.79 277.54 -0.26Q276.18 0.26 274.43 0.26Q272.20 0.26 270.61 -0.56Q269.02 -1.38 268.37 -2.60Q268.29 -2.76 268.29 -2.91Q268.29 -3.05 268.42 -3.13L269.94 -3.94Q270.16 -4.05 270.29 -4.03Q270.42 -4.01 270.50 -3.90Q270.88 -3.37 271.39 -2.92Q271.90 -2.48 272.64 -2.22Q273.39 -1.96 274.45 -1.97Q275.27 -1.99 275.93 -2.18Q276.60 -2.38 276.98 -2.77Q277.37 -3.15 277.37 -3.68Q277.37 -4.21 276.93 -4.60Q276.49 -4.99 275.35 -5.28L272.69 -5.91Q270.72 -6.38 269.80 -7.31Q268.87 -8.24 268.86 -9.66Q268.86 -10.94 269.55 -11.93Q270.23 -12.92 271.52 -13.48Q272.80 -14.04 274.54 -14.04Q276.45 -14.04 277.86 -13.34Q279.27 -12.63 279.92 -11.59Q280.01 -11.45 280.05 -11.30Q280.09 -11.16 279.91 -11.06L278.30 -10.25Q278.14 -10.18 278.01 -10.21Q277.88 -10.25 277.77 -10.37Z" fill="#103A55" transform="translate(443.9 343.1)"/><path d="M7.89 -8.19Q7.49 -8.74 6.81 -9.11Q6.13 -9.47 5.17 -9.47Q4.20 -9.47 3.54 -9.07Q2.89 -8.66 2.89 -7.95Q2.89 -7.59 3.17 -7.26Q3.46 -6.92 4.37 -6.65L6.85 -5.95Q8.32 -5.57 8.97 -4.80Q9.62 -4.03 9.62 -3.04Q9.62 -2.04 9.04 -1.32Q8.46 -0.60 7.44 -0.20Q6.42 0.20 5.12 0.20Q3.46 0.20 2.25 -0.43Q1.03 -1.06 0.53 -2.02Q0.48 -2.13 0.48 -2.23Q0.48 -2.32 0.57 -2.38L1.55 -2.91Q1.69 -2.98 1.78 -2.97Q1.87 -2.96 1.92 -2.88Q2.23 -2.42 2.66 -2.05Q3.09 -1.69 3.70 -1.47Q4.30 -1.26 5.13 -1.27Q5.84 -1.28 6.41 -1.46Q6.99 -1.65 7.32 -1.99Q7.65 -2.34 7.65 -2.80Q7.65 -3.29 7.25 -3.64Q6.86 -3.99 5.87 -4.26L3.80 -4.79Q2.28 -5.17 1.62 -5.88Q0.95 -6.58 0.94 -7.59Q0.94 -8.57 1.47 -9.31Q1.99 -10.05 2.96 -10.47Q3.92 -10.89 5.20 -10.89Q6.62 -10.89 7.69 -10.36Q8.76 -9.83 9.28 -9.00Q9.35 -8.90 9.37 -8.81Q9.39 -8.72 9.27 -8.65L8.23 -8.11Q8.14 -8.07 8.05 -8.09Q7.96 -8.11 7.89 -8.19ZM13.98 -0.38Q13.98 -0.17 13.89 -0.08Q13.80 0.00 13.56 0.00H12.19Q11.98 0.00 11.91 -0.07Q11.84 -0.15 11.84 -0.33V-10.38Q11.84 -10.68 12.11 -10.68H13.72Q13.98 -10.68 13.98 -10.40ZM14.04 -12.83Q14.04 -12.40 13.62 -12.40H12.13Q11.92 -12.40 11.85 -12.50Q11.78 -12.60 11.78 -12.78V-14.61Q11.78 -14.96 12.08 -14.96H13.75Q14.04 -14.96 14.04 -14.63ZM17.14 0.00Q16.82 0.00 16.82 -0.31V-10.39Q16.82 -10.68 17.07 -10.68H18.65Q18.90 -10.68 18.90 -10.42V-9.32Q18.90 -9.21 18.95 -9.18Q19.00 -9.15 19.10 -9.25Q19.71 -9.76 20.26 -10.13Q20.80 -10.50 21.38 -10.69Q21.96 -10.89 22.61 -10.89Q23.77 -10.89 24.49 -10.36Q25.21 -9.82 25.47 -9.08Q25.51 -9.00 25.59 -9.02Q25.67 -9.04 25.75 -9.12Q26.33 -9.66 26.91 -10.05Q27.49 -10.45 28.10 -10.67Q28.72 -10.89 29.37 -10.89Q30.82 -10.89 31.64 -10.04Q32.45 -9.19 32.45 -7.76V-0.37Q32.45 0.00 32.08 0.00H30.61Q30.45 0.00 30.38 -0.08Q30.31 -0.15 30.31 -0.31V-7.38Q30.31 -8.27 29.88 -8.77Q29.44 -9.26 28.54 -9.26Q28.02 -9.26 27.53 -9.06Q27.05 -8.86 26.66 -8.57Q26.27 -8.28 25.97 -8.00Q25.82 -7.86 25.76 -7.74Q25.70 -7.61 25.70 -7.42V-0.37Q25.70 0.00 25.34 0.00H23.87Q23.72 0.00 23.65 -0.08Q23.57 -0.15 23.57 -0.31V-7.38Q23.57 -8.27 23.14 -8.77Q22.71 -9.26 21.80 -9.26Q21.02 -9.26 20.39 -8.89Q19.75 -8.52 18.96 -7.76V-0.35Q18.96 0.00 18.58 0.00H17.14ZM36.95 -10.68Q37.29 -10.68 37.29 -10.35V-9.58Q37.29 -9.43 37.37 -9.42Q37.44 -9.41 37.55 -9.51Q37.82 -9.77 38.20 -10.09Q38.59 -10.40 39.18 -10.64Q39.78 -10.89 40.65 -10.89Q41.87 -10.89 42.85 -10.29Q43.83 -9.70 44.40 -8.51Q44.98 -7.31 44.98 -5.48Q44.98 -3.63 44.40 -2.37Q43.82 -1.10 42.81 -0.45Q41.79 0.20 40.45 0.20Q39.56 0.20 38.87 -0.08Q38.17 -0.35 37.64 -0.81Q37.45 -0.99 37.38 -0.96Q37.30 -0.93 37.30 -0.69V3.04Q37.30 3.33 37.05 3.33H35.42Q35.17 3.33 35.17 3.04V-10.33Q35.17 -10.52 35.24 -10.60Q35.32 -10.68 35.53 -10.68H36.95ZM37.30 -2.49Q37.85 -1.92 38.44 -1.59Q39.04 -1.25 39.78 -1.25Q40.68 -1.25 41.35 -1.71Q42.03 -2.17 42.42 -3.11Q42.80 -4.05 42.80 -5.48Q42.80 -6.91 42.41 -7.78Q42.01 -8.64 41.35 -9.04Q40.68 -9.43 39.88 -9.43Q39.13 -9.43 38.54 -9.11Q37.96 -8.78 37.63 -8.30Q37.30 -7.82 37.30 -7.33V-2.49ZM49.43 -0.38Q49.43 -0.17 49.34 -0.08Q49.25 0.00 49.01 0.00H47.63Q47.27 0.00 47.27 -0.33L47.32 -14.65Q47.32 -14.96 47.58 -14.96H49.17Q49.43 -14.96 49.43 -14.67ZM53.91 -4.61Q53.91 -3.69 54.34 -2.95Q54.78 -2.21 55.51 -1.78Q56.24 -1.35 57.15 -1.35Q58.08 -1.35 58.81 -1.73Q59.53 -2.11 60.13 -2.91Q60.20 -3.01 60.26 -3.02Q60.31 -3.03 60.43 -2.97L61.46 -2.48Q61.68 -2.38 61.51 -2.17Q60.94 -1.32 60.27 -0.80Q59.59 -0.28 58.77 -0.04Q57.95 0.20 56.92 0.20Q55.41 0.20 54.23 -0.48Q53.05 -1.17 52.38 -2.40Q51.70 -3.62 51.70 -5.22Q51.70 -6.97 52.39 -8.24Q53.09 -9.50 54.27 -10.19Q55.45 -10.89 56.89 -10.89Q58.39 -10.89 59.50 -10.23Q60.61 -9.57 61.24 -8.34Q61.87 -7.11 61.87 -5.36Q61.87 -5.18 61.83 -5.05Q61.80 -4.92 61.56 -4.91H54.11Q54.01 -4.91 53.96 -4.83Q53.91 -4.74 53.91 -4.61ZM59.41 -6.20Q59.63 -6.20 59.69 -6.25Q59.76 -6.31 59.76 -6.48Q59.76 -7.24 59.42 -7.92Q59.09 -8.60 58.47 -9.03Q57.85 -9.46 56.95 -9.46Q56.01 -9.46 55.33 -9.01Q54.64 -8.55 54.30 -7.80Q53.95 -7.05 53.95 -6.20ZM64.34 0.00Q64.02 0.00 64.02 -0.31V-10.39Q64.02 -10.68 64.27 -10.68H65.85Q66.09 -10.68 66.09 -10.42V-9.32Q66.09 -9.21 66.14 -9.18Q66.20 -9.15 66.29 -9.25Q66.90 -9.76 67.45 -10.13Q68.00 -10.50 68.57 -10.69Q69.15 -10.89 69.80 -10.89Q70.97 -10.89 71.69 -10.36Q72.41 -9.82 72.67 -9.08Q72.71 -9.00 72.79 -9.02Q72.86 -9.04 72.94 -9.12Q73.53 -9.66 74.11 -10.05Q74.69 -10.45 75.30 -10.67Q75.91 -10.89 76.56 -10.89Q78.02 -10.89 78.83 -10.04Q79.64 -9.19 79.64 -7.76V-0.37Q79.64 0.00 79.28 0.00H77.80Q77.65 0.00 77.58 -0.08Q77.51 -0.15 77.51 -0.31V-7.38Q77.51 -8.27 77.07 -8.77Q76.64 -9.26 75.74 -9.26Q75.21 -9.26 74.73 -9.06Q74.24 -8.86 73.85 -8.57Q73.47 -8.28 73.16 -8.00Q73.01 -7.86 72.95 -7.74Q72.89 -7.61 72.89 -7.42V-0.37Q72.89 0.00 72.54 0.00H71.06Q70.92 0.00 70.84 -0.08Q70.77 -0.15 70.77 -0.31V-7.38Q70.77 -8.27 70.34 -8.77Q69.90 -9.26 68.99 -9.26Q68.22 -9.26 67.58 -8.89Q66.94 -8.52 66.15 -7.76V-0.35Q66.15 0.00 65.77 0.00H64.34ZM86.97 0.20Q85.42 0.20 84.25 -0.50Q83.08 -1.20 82.43 -2.44Q81.78 -3.68 81.78 -5.28Q81.78 -6.95 82.45 -8.21Q83.12 -9.47 84.29 -10.18Q85.47 -10.89 86.99 -10.89Q88.55 -10.89 89.71 -10.17Q90.87 -9.46 91.52 -8.20Q92.18 -6.94 92.18 -5.31Q92.18 -3.69 91.52 -2.45Q90.86 -1.21 89.69 -0.50Q88.53 0.20 86.97 0.20ZM87.00 -1.31Q87.96 -1.31 88.63 -1.79Q89.30 -2.27 89.65 -3.17Q90.00 -4.07 90.00 -5.34Q90.00 -6.62 89.64 -7.53Q89.29 -8.44 88.61 -8.92Q87.94 -9.41 86.99 -9.41Q86.05 -9.41 85.37 -8.92Q84.68 -8.44 84.32 -7.53Q83.96 -6.62 83.96 -5.34Q83.96 -4.08 84.32 -3.17Q84.68 -2.27 85.37 -1.79Q86.05 -1.31 87.00 -1.31ZM94.76 0.00Q94.44 0.00 94.44 -0.31V-10.39Q94.44 -10.68 94.69 -10.68H96.28Q96.52 -10.68 96.52 -10.42V-9.32Q96.52 -9.21 96.57 -9.18Q96.63 -9.15 96.72 -9.25Q97.35 -9.76 97.91 -10.13Q98.48 -10.50 99.07 -10.69Q99.66 -10.89 100.34 -10.89Q101.87 -10.89 102.72 -10.03Q103.57 -9.18 103.57 -7.80V-0.37Q103.57 0.00 103.21 0.00H101.73Q101.57 0.00 101.50 -0.08Q101.43 -0.15 101.43 -0.31V-7.38Q101.43 -8.27 100.97 -8.77Q100.50 -9.26 99.53 -9.26Q99.00 -9.26 98.53 -9.09Q98.06 -8.92 97.60 -8.60Q97.13 -8.27 96.57 -7.76V-0.35Q96.57 0.00 96.19 0.00H94.76ZM107.92 -4.61Q107.92 -3.69 108.35 -2.95Q108.78 -2.21 109.52 -1.78Q110.25 -1.35 111.16 -1.35Q112.08 -1.35 112.81 -1.73Q113.54 -2.11 114.14 -2.91Q114.21 -3.01 114.26 -3.02Q114.32 -3.03 114.44 -2.97L115.47 -2.48Q115.69 -2.38 115.52 -2.17Q114.94 -1.32 114.27 -0.80Q113.60 -0.28 112.78 -0.04Q111.96 0.20 110.93 0.20Q109.42 0.20 108.24 -0.48Q107.06 -1.17 106.39 -2.40Q105.71 -3.62 105.71 -5.22Q105.71 -6.97 106.40 -8.24Q107.10 -9.50 108.28 -10.19Q109.46 -10.89 110.90 -10.89Q112.40 -10.89 113.51 -10.23Q114.62 -9.57 115.25 -8.34Q115.87 -7.11 115.87 -5.36Q115.87 -5.18 115.84 -5.05Q115.81 -4.92 115.57 -4.91H108.12Q108.02 -4.91 107.97 -4.83Q107.92 -4.74 107.92 -4.61ZM113.42 -6.20Q113.63 -6.20 113.70 -6.25Q113.76 -6.31 113.76 -6.48Q113.76 -7.24 113.43 -7.92Q113.10 -8.60 112.48 -9.03Q111.86 -9.46 110.96 -9.46Q110.02 -9.46 109.33 -9.01Q108.65 -8.55 108.31 -7.80Q107.96 -7.05 107.96 -6.20ZM118.37 3.33Q117.77 3.33 117.46 3.28Q117.15 3.24 117.15 3.03V2.00Q117.15 1.87 117.26 1.79Q117.38 1.71 117.72 1.71H119.02Q119.45 1.71 119.80 1.46Q120.14 1.20 120.37 0.82Q120.59 0.44 120.67 0.03Q120.75 -0.38 120.62 -0.70L116.77 -10.30Q116.71 -10.45 116.77 -10.57Q116.84 -10.68 117.02 -10.68H118.67Q118.81 -10.68 118.90 -10.62Q118.99 -10.55 119.03 -10.42L121.80 -3.17Q121.87 -2.99 121.97 -2.99Q122.07 -2.99 122.15 -3.22L124.88 -10.44Q124.94 -10.55 125.02 -10.62Q125.10 -10.68 125.22 -10.68H126.41Q126.57 -10.68 126.63 -10.57Q126.70 -10.46 126.63 -10.34L122.30 0.65Q121.96 1.47 121.59 2.00Q121.21 2.52 120.74 2.81Q120.28 3.10 119.70 3.21Q119.12 3.33 118.37 3.33ZM133.65 -4.85Q133.65 -4.52 133.26 -4.52L128.63 -4.51Q128.46 -4.51 128.39 -4.57Q128.32 -4.64 128.32 -4.80V-5.87Q128.32 -6.14 128.54 -6.14L133.42 -6.16Q133.65 -6.16 133.65 -5.92ZM139.59 -9.15Q139.40 -9.15 139.40 -8.96V-3.05Q139.40 -2.18 139.73 -1.87Q140.06 -1.55 140.72 -1.55H142.01Q142.13 -1.55 142.19 -1.49Q142.26 -1.42 142.26 -1.30L142.25 -0.44Q142.25 -0.18 141.94 -0.11Q141.68 -0.07 141.30 -0.04Q140.92 -0.02 140.54 -0.01Q140.16 0.00 139.89 0.00Q138.58 0.00 137.92 -0.61Q137.27 -1.23 137.27 -2.52V-8.92Q137.27 -9.15 137.06 -9.15H135.56Q135.29 -9.15 135.29 -9.40V-10.46Q135.29 -10.68 135.54 -10.68H137.15Q137.31 -10.68 137.32 -10.87L137.56 -14.03Q137.57 -14.31 137.80 -14.31H139.19Q139.45 -14.31 139.45 -14.00V-10.87Q139.45 -10.69 139.63 -10.69H142.04Q142.29 -10.69 142.29 -10.46V-9.40Q142.29 -9.15 142.01 -9.15ZM148.66 0.20Q147.11 0.20 145.94 -0.50Q144.77 -1.20 144.12 -2.44Q143.47 -3.68 143.47 -5.28Q143.47 -6.95 144.14 -8.21Q144.81 -9.47 145.98 -10.18Q147.16 -10.89 148.68 -10.89Q150.24 -10.89 151.40 -10.17Q152.56 -9.46 153.21 -8.20Q153.87 -6.94 153.87 -5.31Q153.87 -3.69 153.21 -2.45Q152.55 -1.21 151.38 -0.50Q150.21 0.20 148.66 0.20ZM148.69 -1.31Q149.65 -1.31 150.32 -1.79Q150.99 -2.27 151.34 -3.17Q151.69 -4.07 151.69 -5.34Q151.69 -6.62 151.33 -7.53Q150.98 -8.44 150.30 -8.92Q149.63 -9.41 148.68 -9.41Q147.74 -9.41 147.06 -8.92Q146.37 -8.44 146.01 -7.53Q145.65 -6.62 145.65 -5.34Q145.65 -4.08 146.01 -3.17Q146.37 -2.27 147.06 -1.79Q147.74 -1.31 148.69 -1.31ZM160.74 0.20Q159.19 0.20 158.02 -0.50Q156.85 -1.20 156.20 -2.44Q155.55 -3.68 155.55 -5.28Q155.55 -6.95 156.21 -8.21Q156.88 -9.47 158.06 -10.18Q159.23 -10.89 160.76 -10.89Q162.32 -10.89 163.48 -10.17Q164.64 -9.46 165.29 -8.20Q165.94 -6.94 165.94 -5.31Q165.94 -3.69 165.29 -2.45Q164.63 -1.21 163.46 -0.50Q162.29 0.20 160.74 0.20ZM160.77 -1.31Q161.73 -1.31 162.40 -1.79Q163.06 -2.27 163.41 -3.17Q163.77 -4.07 163.77 -5.34Q163.77 -6.62 163.41 -7.53Q163.05 -8.44 162.38 -8.92Q161.70 -9.41 160.76 -9.41Q159.82 -9.41 159.13 -8.92Q158.45 -8.44 158.09 -7.53Q157.72 -6.62 157.72 -5.34Q157.72 -4.08 158.09 -3.17Q158.45 -2.27 159.13 -1.79Q159.82 -1.31 160.77 -1.31ZM170.35 -0.38Q170.35 -0.17 170.26 -0.08Q170.17 0.00 169.93 0.00H168.55Q168.19 0.00 168.19 -0.33L168.24 -14.65Q168.24 -14.96 168.50 -14.96H170.09Q170.35 -14.96 170.35 -14.67ZM179.67 -8.19Q179.27 -8.74 178.59 -9.11Q177.91 -9.47 176.96 -9.47Q175.98 -9.47 175.33 -9.07Q174.67 -8.66 174.67 -7.95Q174.67 -7.59 174.96 -7.26Q175.24 -6.92 176.15 -6.65L178.63 -5.95Q180.10 -5.57 180.75 -4.80Q181.40 -4.03 181.40 -3.04Q181.40 -2.04 180.82 -1.32Q180.24 -0.60 179.22 -0.20Q178.21 0.20 176.91 0.20Q175.24 0.20 174.03 -0.43Q172.82 -1.06 172.31 -2.02Q172.26 -2.13 172.26 -2.23Q172.26 -2.32 172.35 -2.38L173.34 -2.91Q173.47 -2.98 173.56 -2.97Q173.65 -2.96 173.70 -2.88Q174.02 -2.42 174.44 -2.05Q174.87 -1.69 175.48 -1.47Q176.08 -1.26 176.92 -1.27Q177.62 -1.28 178.20 -1.46Q178.77 -1.65 179.10 -1.99Q179.43 -2.34 179.43 -2.80Q179.43 -3.29 179.04 -3.64Q178.64 -3.99 177.65 -4.26L175.59 -4.79Q174.07 -5.17 173.40 -5.88Q172.73 -6.58 172.73 -7.59Q172.73 -8.57 173.25 -9.31Q173.78 -10.05 174.74 -10.47Q175.70 -10.89 176.98 -10.89Q178.40 -10.89 179.47 -10.36Q180.54 -9.83 181.07 -9.00Q181.13 -8.90 181.15 -8.81Q181.17 -8.72 181.06 -8.65L180.02 -8.11Q179.92 -8.07 179.83 -8.09Q179.74 -8.11 179.67 -8.19ZM185.66 -0.37Q185.66 0.00 185.24 0.00H183.53Q183.18 0.00 183.18 -0.33V-2.32Q183.18 -2.61 183.42 -2.61H185.43Q185.66 -2.61 185.66 -2.34ZM192.14 -10.89Q193.27 -10.89 194.11 -10.51Q194.95 -10.14 195.52 -9.53Q196.10 -8.92 196.44 -8.21Q196.56 -7.91 196.29 -7.87L194.87 -7.62Q194.69 -7.58 194.60 -7.79Q194.26 -8.30 193.92 -8.65Q193.57 -9.00 193.17 -9.19Q192.77 -9.39 192.24 -9.39Q191.32 -9.39 190.63 -8.91Q189.93 -8.44 189.55 -7.54Q189.17 -6.63 189.17 -5.34Q189.17 -4.04 189.56 -3.13Q189.95 -2.22 190.66 -1.75Q191.37 -1.28 192.32 -1.28Q193.27 -1.28 193.91 -1.76Q194.56 -2.23 195.11 -3.12Q195.16 -3.21 195.22 -3.23Q195.28 -3.25 195.40 -3.21L196.45 -2.88Q196.63 -2.82 196.55 -2.57Q196.30 -2.07 195.91 -1.57Q195.52 -1.08 194.98 -0.68Q194.44 -0.28 193.73 -0.04Q193.03 0.20 192.14 0.20Q190.64 0.20 189.47 -0.49Q188.30 -1.19 187.65 -2.43Q187.00 -3.67 187.00 -5.30Q187.00 -6.95 187.66 -8.21Q188.32 -9.46 189.49 -10.17Q190.66 -10.89 192.14 -10.89ZM203.05 0.20Q201.51 0.20 200.33 -0.50Q199.16 -1.20 198.51 -2.44Q197.86 -3.68 197.86 -5.28Q197.86 -6.95 198.53 -8.21Q199.20 -9.47 200.37 -10.18Q201.55 -10.89 203.07 -10.89Q204.63 -10.89 205.79 -10.17Q206.95 -9.46 207.61 -8.20Q208.26 -6.94 208.26 -5.31Q208.26 -3.69 207.60 -2.45Q206.95 -1.21 205.78 -0.50Q204.61 0.20 203.05 0.20ZM203.08 -1.31Q204.04 -1.31 204.71 -1.79Q205.38 -2.27 205.73 -3.17Q206.08 -4.07 206.08 -5.34Q206.08 -6.62 205.72 -7.53Q205.37 -8.44 204.69 -8.92Q204.02 -9.41 203.07 -9.41Q202.13 -9.41 201.45 -8.92Q200.76 -8.44 200.40 -7.53Q200.04 -6.62 200.04 -5.34Q200.04 -4.08 200.40 -3.17Q200.76 -2.27 201.45 -1.79Q202.13 -1.31 203.08 -1.31ZM212.03 -0.37Q212.03 0.00 211.60 0.00H209.90Q209.55 0.00 209.55 -0.33V-2.32Q209.55 -2.61 209.79 -2.61H211.80Q212.03 -2.61 212.03 -2.34ZM218.33 -1.41Q219.13 -1.41 219.85 -1.84Q220.57 -2.28 221.26 -3.00V-10.34Q221.26 -10.68 221.64 -10.68H223.09Q223.41 -10.68 223.41 -10.36L223.38 -0.29Q223.38 0.00 223.12 0.00H221.56Q221.32 0.00 221.32 -0.26V-1.38Q221.32 -1.49 221.27 -1.52Q221.22 -1.54 221.12 -1.45Q220.09 -0.53 219.24 -0.16Q218.39 0.20 217.51 0.20Q216.60 0.20 215.88 -0.18Q215.17 -0.56 214.75 -1.27Q214.33 -1.98 214.33 -2.93V-10.32Q214.33 -10.68 214.70 -10.68H216.17Q216.47 -10.68 216.47 -10.36V-3.37Q216.47 -2.49 216.97 -1.95Q217.46 -1.41 218.33 -1.41ZM235.89 -0.37Q235.98 -0.24 235.92 -0.12Q235.87 0.00 235.67 0.00H233.88Q233.73 0.00 233.63 -0.08Q233.53 -0.15 233.46 -0.30L230.71 -5.19Q230.67 -5.29 230.61 -5.32Q230.56 -5.34 230.44 -5.23L228.53 -3.32Q228.45 -3.23 228.41 -3.14Q228.37 -3.04 228.37 -2.88V-0.38Q228.37 -0.17 228.28 -0.08Q228.20 0.00 227.96 0.00H226.59Q226.37 0.00 226.30 -0.07Q226.23 -0.15 226.23 -0.33V-14.65Q226.23 -14.96 226.50 -14.96H228.11Q228.37 -14.96 228.37 -14.67V-5.65Q228.37 -5.51 228.42 -5.48Q228.47 -5.44 228.59 -5.57L233.20 -10.42Q233.45 -10.68 233.66 -10.68H235.17Q235.41 -10.68 235.45 -10.56Q235.48 -10.44 235.32 -10.27L232.24 -7.14Q232.16 -7.05 232.14 -6.97Q232.13 -6.89 232.21 -6.72L235.89 -0.37Z" fill="#4A6A84" transform="translate(1065.6 491.4)"/></svg>