<svg xmlns="http://www.w3.org/2000/svg" viewBox="0 0 512 512" width="512" height="512" role="img" aria-label="Simple Money Tools — Hazel the squirrel sitting on a pound coin" xmlns:c2pa="http://c2pa.org/manifest"><metadata><c2pa:manifest>AAAWgmp1bWIAAAAeanVtZGMycGEAEQAQgAAAqgA4m3EDYzJwYQAAABZcanVtYgAAAEdqdW1kYzJtYQARABCAAACqADibcQN1cm46YzJwYTo1OGNmMTcxMi0yY2Q0LTQxZmEtYmU2Ny1jMWM5OGNiN2Y1MWUAAAADl2p1bWIAAAApanVtZGMyYXMAEQAQgAAAqgA4m3EDYzJwYS5hc3NlcnRpb25zAAAAALxqdW1iAAAARGp1bWRjYm9yABEAEIAAAKoAOJtxE2MycGEuaW5ncmVkaWVudC52MwAAAAAYYzJzaEKb8kI2NXPOHOm+Vj2R+0IAAABwY2JvcqNpZGM6Zm9ybWF0bWltYWdlL3N2Zyt4bWxqaW5zdGFuY2VJRHgseG1wOmlpZDo0NTEyYWFkMy0xYWVmLTRhNTctOWZiNS05MmVhYjZlOTUyNjNscmVsYXRpb25zaGlwaHBhcmVudE9mAAAB4mp1bWIAAABBanVtZGNib3IAEQAQgAAAqgA4m3ETYzJwYS5hY3Rpb25zLnYyAAAAABhjMnNod0Zm+9G4pBU1RgAJEDXQRAAAAZljYm9yomdhY3Rpb25zgqJmYWN0aW9ua2MycGEub3BlbmVkanBhcmFtZXRlcnOha2luZ3JlZGllbnRzgaJjdXJseC1zZWxmI2p1bWJmPWMycGEuYXNzZXJ0aW9ucy9jMnBhLmluZ3JlZGllbnQudjNkaGFzaFggg/0YhdGdnX73XJRVXe5ci4bZ8KIzWa5ZojIIZdRx/dykZmFjdGlvbngdY29tLmFudGhyb3BpYy5jbGF1ZGUucHJvdmlkZWRqcGFyYW1ldGVyc6F4H2NvbS5hbnRocm9waWMub3JpZ2luLWNvbmZpZGVuY2VndW5rbm93bmtkZXNjcmlwdGlvbnhmQ2xhdWRlIHByb3ZpZGVkIHRoaXMgZmlsZSBhdCB0aGUgcmVxdWVzdCBvZiBhIHVzZXIgYW5kIG1heSBoYXZlIGNyZWF0ZWQgb3IgbW9kaWZpZWQgdGhlIGZpbGUgY29udGVudHMubXNvZnR3YXJlQWdlbnShZG5hbWVmQ2xhdWRlcmFsbEFjdGlvbnNJbmNsdWRlZPUAAADIanVtYgAAAEBqdW1kY2JvcgARABCAAACqADibcRNjMnBhLmhhc2guZGF0YQAAAAAYYzJzaGTPQJVprwcHqj+c0JjHI9IAAACAY2JvcqVjYWxnZnNoYTI1NmNwYWRNAAAAAAAAAAAAAAAAAGRoYXNoWCAXISKh1TLzCjeCO0ylwEP7eMLXVbpd59hcgjHavohZxGRuYW1lbmp1bWJmIG1hbmlmZXN0amV4Y2x1c2lvbnOBomVzdGFydBjwZmxlbmd0aBkeBAAAAj5qdW1iAAAAJ2p1bWRjMmNsABEAEIAAAKoAOJtxA2MycGEuY2xhaW0udjIAAAACD2Nib3KlY2FsZ2ZzaGEyNTZpc2lnbmF0dXJleE1zZWxmI2p1bWJmPS9jMnBhL3VybjpjMnBhOjU4Y2YxNzEyLTJjZDQtNDFmYS1iZTY3LWMxYzk4Y2I3ZjUxZS9jMnBhLnNpZ25hdHVyZWppbnN0YW5jZUlEeCx4bXA6aWlkOjZjYzllMTk4LWUyNWUtNDBmMi05NmE4LTFiOWNmNzg2M2NjN3JjcmVhdGVkX2Fzc2VydGlvbnODomN1cmx4LXNlbGYjanVtYmY9YzJwYS5hc3NlcnRpb25zL2MycGEuaW5ncmVkaWVudC52M2RoYXNoWCCD/RiF0Z2dfvdclFVd7lyLhtnwojNZrlmiMghl1HH93KJjdXJseCpzZWxmI2p1bWJmPWMycGEuYXNzZXJ0aW9ucy9jMnBhLmFjdGlvbnMudjJkaGFzaFggL7BQjKJGglIoRi14Hf+jw090wcEy1W/ckIh1DJ2BABeiY3VybHgpc2VsZiNqdW1iZj1jMnBhLmFzc2VydGlvbnMvYzJwYS5oYXNoLmRhdGFkaGFzaFgg4nWs5OAemXKrV5RtubNQo6bFr4/Tj+tjvR4KIKKLp4N0Y2xhaW1fZ2VuZXJhdG9yX2luZm+jZG5hbWVvQW50aHJvcGljIEZpbGVzZ3ZlcnNpb25lMS4wLjBrc3BlY1ZlcnNpb25lMi40LjAAABA4anVtYgAAAChqdW1kYzJjcwARABCAAACqADibcQNjMnBhLnNpZ25hdHVyZQAAABAIY2JvctKEWQISogEmGCFZAgowggIGMIIBjaADAgECAhRA5aAK7sI50L64g/oGQgU9Z1UTADAKBggqhkjOPQQDAzBJMRcwFQYDVQQKEw5BbnRocm9waWMsIFBCQzEuMCwGA1UEAxMlQW50aHJvcGljIENvbnRlbnQgQ3JlZGVudGlhbHMgUm9vdCBDQTAeFw0yNjA4MDcxODQzNTZaFw0yODA4MDYxOTQzNTZaMEQxFzAVBgNVBAoTDkFudGhyb3BpYywgUEJDMSkwJwYDVQQDEyBBbnRocm9waWMgQ2xhdWRlIENvbnRlbnQgU2lnbmluZzBZMBMGByqGSM49AgEGCCqGSM49AwEHA0IABJh6CmvLUBgFFNU0vUKlOVtE6djd17L5SuwX0LemFisBM3dkd/3cyjxFA3Qo5S46fX0/ihY0VZ7mfb9KF703t5OjWDBWMA4GA1UdDwEB/wQEAwIHgDAVBgNVHSUEDjAMBgorBgEEAYPoXgIBMAwGA1UdEwEB/wQCMAAwHwYDVR0jBBgwFoAUzlHiBIFOZFsj+OPEz5o+nMHXXMIwCgYIKoZIzj0EAwMDZwAwZAIwMXMdFJ4BetLLVY7ORuE9noqbbAZOZn/aArXyTwFAZfKrPzxF2vPoJNf1+UCdg1XGAjBwX1zd9WGqYkqmL5SFqw1QySjr1zJfpJM9+1rdDwSPLMOPOjKuiXjoU/pUUeG9RwmhY3BhZFkNngAAAAAAAAAAAAAAAAAAAAAAAAAAAAAAAAAAAAAAAAAAAAAAAAAAAAAAAAAAAAAAAAAAAAAAAAAAAAAAAAAAAAAAAAAAAAAAAAAAAAAAAAAAAAAAAAAAAAAAAAAAAAAAAAAAAAAAAAAAAAAAAAAAAAAAAAAAAAAAAAAAAAAAAAAAAAAAAAAAAAAAAAAAAAAAAAAAAAAAAAAAAAAAAAAAAAAAAAAAAAAAAAAAAAAAAAAAAAAAAAAAAAAAAAAAAAAAAAAAAAAAAAAAAAAAAAAAAAAAAAAAAAAAAAAAAAAAAAAAAAAAAAAAAAAAAAAAAAAAAAAAAAAAAAAAAAAAAAAAAAAAAAAAAAAAAAAAAAAAAAAAAAAAAAAAAAAAAAAAAAAAAAAAAAAAAAAAAAAAAAAAAAAAAAAAAAAAAAAAAAAAAAAAAAAAAAAAAAAAAAAAAAAAAAAAAAAAAAAAAAAAAAAAAAAAAAAAAAAAAAAAAAAAAAAAAAAAAAAAAAAAAAAAAAAAAAAAAAAAAAAAAAAAAAAAAAAAAAAAAAAAAAAAAAAAAAAAAAAAAAAAAAAAAAAAAAAAAAAAAAAAAAAAAAAAAAAAAAAAAAAAAAAAAAAAAAAAAAAAAAAAAAAAAAAAAAAAAAAAAAAAAAAAAAAAAAAAAAAAAAAAAAAAAAAAAAAAAAAAAAAAAAAAAAAAAAAAAAAAAAAAAAAAAAAAAAAAAAAAAAAAAAAAAAAAAAAAAAAAAAAAAAAAAAAAAAAAAAAAAAAAAAAAAAAAAAAAAAAAAAAAAAAAAAAAAAAAAAAAAAAAAAAAAAAAAAAAAAAAAAAAAAAAAAAAAAAAAAAAAAAAAAAAAAAAAAAAAAAAAAAAAAAAAAAAAAAAAAAAAAAAAAAAAAAAAAAAAAAAAAAAAAAAAAAAAAAAAAAAAAAAAAAAAAAAAAAAAAAAAAAAAAAAAAAAAAAAAAAAAAAAAAAAAAAAAAAAAAAAAAAAAAAAAAAAAAAAAAAAAAAAAAAAAAAAAAAAAAAAAAAAAAAAAAAAAAAAAAAAAAAAAAAAAAAAAAAAAAAAAAAAAAAAAAAAAAAAAAAAAAAAAAAAAAAAAAAAAAAAAAAAAAAAAAAAAAAAAAAAAAAAAAAAAAAAAAAAAAAAAAAAAAAAAAAAAAAAAAAAAAAAAAAAAAAAAAAAAAAAAAAAAAAAAAAAAAAAAAAAAAAAAAAAAAAAAAAAAAAAAAAAAAAAAAAAAAAAAAAAAAAAAAAAAAAAAAAAAAAAAAAAAAAAAAAAAAAAAAAAAAAAAAAAAAAAAAAAAAAAAAAAAAAAAAAAAAAAAAAAAAAAAAAAAAAAAAAAAAAAAAAAAAAAAAAAAAAAAAAAAAAAAAAAAAAAAAAAAAAAAAAAAAAAAAAAAAAAAAAAAAAAAAAAAAAAAAAAAAAAAAAAAAAAAAAAAAAAAAAAAAAAAAAAAAAAAAAAAAAAAAAAAAAAAAAAAAAAAAAAAAAAAAAAAAAAAAAAAAAAAAAAAAAAAAAAAAAAAAAAAAAAAAAAAAAAAAAAAAAAAAAAAAAAAAAAAAAAAAAAAAAAAAAAAAAAAAAAAAAAAAAAAAAAAAAAAAAAAAAAAAAAAAAAAAAAAAAAAAAAAAAAAAAAAAAAAAAAAAAAAAAAAAAAAAAAAAAAAAAAAAAAAAAAAAAAAAAAAAAAAAAAAAAAAAAAAAAAAAAAAAAAAAAAAAAAAAAAAAAAAAAAAAAAAAAAAAAAAAAAAAAAAAAAAAAAAAAAAAAAAAAAAAAAAAAAAAAAAAAAAAAAAAAAAAAAAAAAAAAAAAAAAAAAAAAAAAAAAAAAAAAAAAAAAAAAAAAAAAAAAAAAAAAAAAAAAAAAAAAAAAAAAAAAAAAAAAAAAAAAAAAAAAAAAAAAAAAAAAAAAAAAAAAAAAAAAAAAAAAAAAAAAAAAAAAAAAAAAAAAAAAAAAAAAAAAAAAAAAAAAAAAAAAAAAAAAAAAAAAAAAAAAAAAAAAAAAAAAAAAAAAAAAAAAAAAAAAAAAAAAAAAAAAAAAAAAAAAAAAAAAAAAAAAAAAAAAAAAAAAAAAAAAAAAAAAAAAAAAAAAAAAAAAAAAAAAAAAAAAAAAAAAAAAAAAAAAAAAAAAAAAAAAAAAAAAAAAAAAAAAAAAAAAAAAAAAAAAAAAAAAAAAAAAAAAAAAAAAAAAAAAAAAAAAAAAAAAAAAAAAAAAAAAAAAAAAAAAAAAAAAAAAAAAAAAAAAAAAAAAAAAAAAAAAAAAAAAAAAAAAAAAAAAAAAAAAAAAAAAAAAAAAAAAAAAAAAAAAAAAAAAAAAAAAAAAAAAAAAAAAAAAAAAAAAAAAAAAAAAAAAAAAAAAAAAAAAAAAAAAAAAAAAAAAAAAAAAAAAAAAAAAAAAAAAAAAAAAAAAAAAAAAAAAAAAAAAAAAAAAAAAAAAAAAAAAAAAAAAAAAAAAAAAAAAAAAAAAAAAAAAAAAAAAAAAAAAAAAAAAAAAAAAAAAAAAAAAAAAAAAAAAAAAAAAAAAAAAAAAAAAAAAAAAAAAAAAAAAAAAAAAAAAAAAAAAAAAAAAAAAAAAAAAAAAAAAAAAAAAAAAAAAAAAAAAAAAAAAAAAAAAAAAAAAAAAAAAAAAAAAAAAAAAAAAAAAAAAAAAAAAAAAAAAAAAAAAAAAAAAAAAAAAAAAAAAAAAAAAAAAAAAAAAAAAAAAAAAAAAAAAAAAAAAAAAAAAAAAAAAAAAAAAAAAAAAAAAAAAAAAAAAAAAAAAAAAAAAAAAAAAAAAAAAAAAAAAAAAAAAAAAAAAAAAAAAAAAAAAAAAAAAAAAAAAAAAAAAAAAAAAAAAAAAAAAAAAAAAAAAAAAAAAAAAAAAAAAAAAAAAAAAAAAAAAAAAAAAAAAAAAAAAAAAAAAAAAAAAAAAAAAAAAAAAAAAAAAAAAAAAAAAAAAAAAAAAAAAAAAAAAAAAAAAAAAAAAAAAAAAAAAAAAAAAAAAAAAAAAAAAAAAAAAAAAAAAAAAAAAAAAAAAAAAAAAAAAAAAAAAAAAAAAAAAAAAAAAAAAAAAAAAAAAAAAAAAAAAAAAAAAAAAAAAAAAAAAAAAAAAAAAAAAAAAAAAAAAAAAAAAAAAAAAAAAAAAAAAAAAAAAAAAAAAAAAAAAAAAAAAAAAAAAAAAAAAAAAAAAAAAAAAAAAAAAAAAAAAAAAAAAAAAAAAAAAAAAAAAAAAAAAAAAAAAAAAAAAAAAAAAAAAAAAAAAAAAAAAAAAAAAAAAAAAAAAAAAAAAAAAAAAAAAAAAAAAAAAAAAAAAAAAAAAAAAAAAAAAAAAAAAAAAAAAAAAAAAAAAAAAAAAAAAAAAAAAAAAAAAAAAAAAAAAAAAAAAAAAAAAAAAAAAAAAAAAAAAAAAAAAAAAAAAAAAAAAAAAAAAAAAAAAAAAAAAAAAAAAAAAAAAAAAAAAAAAAAAAAAAAAAAAAAAAAAAAAAAAAAAAAAAAAAAAAAAAAAAAAAAAAAAAAAAAAAAAAAAAAAAAAAAAAAAAAAAAAAAAAAAAAAAAAAAAAAAAAAAAAAAAAAAAAAAAAAAAAAAAAAAAAAAAAAAAAAAAAAAAAAAAAAAAAAAAAAAAAAAAAAAAAAAAAAAAAAAAAAAAAAAAAAAAAAAAAAAAAAAAAAAAAAAAAAAAAAAAAAAAAAAAAAAAAAAAAAAAAAAAAAAAAAAAAAAAAAAAAAAAAAAAAAAAAAAAAAAAAAAAAAAAAAAAAAAAAAAAAAAAAAAAAAAAAAAAAAAAAAAAAAAAAAAAAAAAAAAAAAAAAAAAAAAAAAAAAAAAAAAAAAAAAAAAAAAAAAAAAAAAAAAAAAAAAAAAAAAAAAAAAAAAAAAAAAAAAAAAAAAAAAAAAAAAAAAAAAAAAAAAAAAAAAAAAAAAAAAAAAAAAAAAAAAAAAAAAAAAAAAAAAAAAAAAAAAAAAAAAAAAAAAAAAAAAAAAAAAAAAAAAAAAAAAAAAAAAAAAAAAAAAAAAAAAAAAAAAAAAAAAAAAAAAAAAAAAAAAAAAAAAAAAAAAAAAAAAAAAAAAAAAAAAAAAAAAAAAAAAAAAAAAAAAAAAAAAAAAAAAAAAAAAAAAAAAAAAAAAAAAAAAAAAAAAAAAAAAAAAAAAAAAAAAAAAAAAAAAAAAAAAAAAAAAAAAAAAAAAAAAAAAAAAAAAAAAAAAAAAAAAAAAAAAAAAAAAAAAAAAAAAAAAAAAAAAAAAAAAAAAAAAAAAAAAAAAAAAAAAAAAAAAAAAAAAAAAAAAAAAAAAAAAAAAAAAAAAAAAAAAAAAAAAAAAAAAAAAAAAAAAAAAAAAAAAAAAAAAAAAAAAAAAAAAAAAAAAAAAAAAAAAAAAAAAAAAAAAAAAAAAAAAAAAAAAAAAAAAAAAAAAAAAAAAAAAAAAAAAAAAAAAAAAAAAAAAAAAAAAAAAAAAAAAAAAAAAAAAAAAAAAAAAAAAAAAAAAAAAAAAAAAAAAAAAAAAAAAAAAAAAAAAAAAAAAAAAAAAAAAAAAAAAAAAAAAAAAAAAAAAAAAAAAAAAAAAAAAAAAAAAAAAAAAAAAAAAAAAAAAAAAAAAAAAAAAAAAAAAAAAAAAAAAAAAAAAAAAAAAAAAAAAAAAAAAAAAAAAAAAAAAAAAAAAAAAAAAAAAAAAAAAAAAAAAAAAAAAPZYQIXR/HKsSMEBOy2NZGgB5IuylndJAWDgXGB3fEoUbhEaLtKtobpiPrG8j6yNKfwcgzOAleGv/+KjcUUExovRqw0=</c2pa:manifest></metadata><title>Simple Money Tools — Hazel the squirrel sitting on a pound coin</title><defs><clipPath id="disc"><circle cx="256" cy="256" r="256"/></clipPath></defs><circle cx="256" cy="256" r="256" fill="#F2F7FB"/><g clip-path="url(#disc)">
  <g transform="translate(0 10) translate(256 306) scale(1.1) translate(-256 -306)">
  <polygon points="227.3,245.0 223.4,244.5 220.0,243.8 216.9,242.9 214.2,241.7 211.8,240.4 209.8,238.9 208.2,237.4 206.8,235.8 205.8,234.2 205.0,232.6 204.4,230.9 204.0,229.4 203.8,227.8 203.7,226.3 203.6,224.7 203.6,223.2 203.6,221.7 203.7,220.1 203.8,218.6 203.8,216.9 203.9,215.3 204.0,213.5 204.1,211.7 204.2,209.9 204.3,207.9 204.4,206.0 204.5,203.9 204.7,201.8 204.8,199.6 205.0,197.3 205.3,195.0 205.5,192.7 205.8,190.3 206.1,187.9 206.5,185.5 206.9,183.0 207.4,180.5 207.8,178.0 208.4,175.5 208.9,172.9 209.5,170.4 210.1,167.8 210.7,165.2 211.3,162.7 212.0,160.0 212.7,157.4 213.4,154.7 214.2,152.0 215.0,149.3 215.9,146.5 216.9,143.7 217.9,140.9 219.1,138.0 220.4,135.0 221.9,132.0 223.5,129.0 225.3,125.9 227.3,122.7 229.6,119.6 232.1,116.4 234.9,113.2 237.9,110.0 241.3,106.9 245.0,103.7 249.1,100.7 253.5,97.7 258.3,94.9 263.5,92.1 269.0,89.5 275.0,87.2 281.3,85.0 288.0,83.0 291.3,82.7 294.5,82.0 297.6,80.7 300.4,79.0 302.9,76.8 305.0,74.3 306.7,71.5 308.0,68.5 308.7,65.3 309.0,62.0 308.7,58.7 308.0,55.5 306.7,52.4 305.0,49.6 302.8,47.1 300.3,45.0 297.5,43.3 294.5,42.0 291.3,41.3 288.0,41.0 279.6,39.3 271.3,37.9 263.0,36.9 254.8,36.1 246.7,35.7 238.6,35.7 230.6,36.0 222.7,36.6 214.9,37.6 207.1,39.0 199.5,40.7 192.0,42.8 184.7,45.3 177.5,48.1 170.5,51.3 163.7,54.9 157.1,58.7 150.8,62.9 144.7,67.4 138.9,72.2 133.4,77.3 128.2,82.6 123.3,88.1 118.7,93.9 114.5,99.8 110.5,106.0 106.9,112.3 103.7,118.7 100.8,125.2 98.3,131.8 96.1,138.5 94.2,145.3 92.7,152.1 91.5,158.9 90.7,165.7 90.1,172.5 89.8,179.3 89.9,186.1 90.2,192.8 90.9,199.5 91.8,206.1 93.1,212.6 94.7,219.1 96.5,225.4 98.7,231.6 101.1,237.7 103.9,243.7 106.9,249.5 110.3,255.2 114.0,260.6 117.9,265.9 122.2,270.9 126.7,275.7 131.6,280.2 136.7,284.4 142.1,288.2 147.7,291.7 153.6,294.8 159.6,297.5 165.8,299.7 172.2,301.5 178.6,302.8 185.1,303.6 191.6,304.0 198.1,303.8 204.5,303.2 210.9,302.2 217.1,300.7 223.2,298.8 229.2,296.6 235.0,294.0 240.7,291.0" fill="#2E8B7A"/>
  <g fill="#163B5A">
    <circle cx="214" cy="256" r="52"/>                                        <!-- haunch -->
    <ellipse cx="258" cy="216" rx="40" ry="82" transform="rotate(28 258 216)"/> <!-- torso, leaning forward -->
    <ellipse cx="226" cy="236" rx="30" ry="46" transform="rotate(28 226 236)"/> <!-- back filler -->
    <rect x="198" y="292" width="104" height="16" rx="8"/>                    <!-- hind foot -->
    <ellipse cx="300" cy="150" rx="36" ry="30"/>                              <!-- head -->
    <ellipse cx="326" cy="160" rx="20" ry="13" transform="rotate(18 326 160)"/> <!-- muzzle -->
    <polygon points="290,134 302,78 316,128" stroke="#163B5A" stroke-width="8" stroke-linejoin="round"/> <!-- near ear -->
    <polygon points="272,140 282,86 298,132" stroke="#163B5A" stroke-width="8" stroke-linejoin="round"/> <!-- far ear -->
    <ellipse cx="312" cy="204" rx="14" ry="20" transform="rotate(-30 312 204)"/> <!-- forearm/paws -->
  </g>
  <ellipse cx="308" cy="148" rx="9" ry="6.5" transform="rotate(-10 308 148)" fill="#F2F7FB"/>
  </g>
  <circle cx="256" cy="488" r="176" fill="#C9A45E"/>
  <path d="M96.517578125 0Q69.819091796875 0 51.3433837890625 18.1624755859375Q32.86767578125 36.324951171875 32.86767578125 63.0234375Q32.86767578125 90.40869140625 51.3433837890625 107.8843994140625Q69.819091796875 125.360107421875 96.517578125 125.360107421875H146.36181640625L117.036865234375 100.91455078125V332.180908203125L145.36181640625 304.98828125H83.566162109375Q62.37353515625 304.98828125 47.62060546875 318.8978271484375Q32.86767578125 332.807373046875 32.86767578125 353.686767578125Q32.86767578125 375.566162109375 47.62060546875 388.9757080078125Q62.37353515625 402.38525390625 83.566162109375 402.38525390625H145.36181640625L117.036865234375 372.566162109375V488.85595703125Q117.036865234375 556.422119140625 144.1331787109375 607.4581298828125Q171.2294921875 658.494140625 226.3919677734375 687.060302734375Q281.554443359375 715.62646484375 364.939697265625 715.62646484375Q412.807373046875 715.62646484375 461.2052001953125 703.13232421875Q509.60302734375 690.63818359375 541.036865234375 670.0234375Q563.048583984375 657.336669921875 571.2110595703125 638.9874267578125Q579.37353515625 620.63818359375 575.4698486328125 602.192626953125Q571.566162109375 583.7470703125 559.12646484375 570.801513671875Q546.686767578125 557.85595703125 527.36767578125 554.663330078125Q508.048583984375 551.470703125 485.35009765625 564.09716796875Q458.795654296875 580.33837890625 430.3978271484375 586.772216796875Q402 593.2060546875 375.324951171875 593.2060546875Q322.0234375 593.2060546875 297.15576171875 567.3685302734375Q272.2880859375 541.531005859375 272.2880859375 495.10888671875V376.192626953125L256.7822265625 402.38525390625H387.072021484375Q408.951416015625 402.38525390625 423.704345703125 388.9757080078125Q438.457275390625 375.566162109375 438.457275390625 353.686767578125Q438.457275390625 332.807373046875 423.704345703125 318.8978271484375Q408.951416015625 304.98828125 387.072021484375 304.98828125H272.2880859375V125.360107421875H510.98828125Q538.686767578125 125.360107421875 556.6624755859375 107.8843994140625Q574.63818359375 90.40869140625 574.63818359375 63.0234375Q574.63818359375 36.324951171875 556.6624755859375 18.1624755859375Q538.686767578125 0 510.98828125 0Z" fill="#163B5A" transform="translate(256 420) scale(0.1645 -0.1645) translate(-304.8 -357.8)"/></g></svg>